<?xml version="1.0" encoding="UTF-8"?>
<svg width="40px" height="40px" viewBox="0 0 40 40" version="1.1" xmlns="http://www.w3.org/2000/svg" xmlns:xlink="http://www.w3.org/1999/xlink">
    <!-- Generator: sketchtool 52.2 (67145) - http://www.bohemiancoding.com/sketch -->
    <title>746B6B70-A3F4-45BC-B05F-2ADDD5B5A166</title>
    <desc>Created with sketchtool.</desc>
    <g id="Page-1" stroke="none" stroke-width="1" fill="none" fill-rule="evenodd">
        <g id="Калькулятор-(Моб)" transform="translate(-134.000000, -12.000000)">
            <g id="Шапка" transform="translate(20.000000, 12.000000)">
                <g id="24-hours" transform="translate(114.000000, 0.000000)">
                    <path d="M27.9536599,31.6551562 L27.7275374,33.9876563 L29.9588946,34.2117187 C26.9927351,36.4477344 23.415776,37.65625 19.6561528,37.65625 C15.0210631,37.65625 10.6634629,35.8196875 7.38595299,32.4848437 C4.10844307,29.15 2.30345541,24.7161719 2.30345541,20 C2.30345541,15.2838281 4.10844307,10.85 7.38595299,7.51515625 C10.6634629,4.1803125 15.0210631,2.34375 19.6561528,2.34375 C20.6147742,2.34375 21.5763133,2.42382812 22.5140499,2.581875 L22.8904346,0.269609375 C21.8286952,0.090703125 20.7405428,0 19.6561528,0 C14.4058101,0 9.46973553,2.08039063 5.75710289,5.8578125 C2.04454702,9.63539062 0,14.6578125 0,20 C0,25.3421875 2.04454702,30.3646094 5.75710289,34.1421875 C9.46973553,37.9196094 14.4058101,40 19.6561528,40 C23.908869,40 27.9551955,38.6347656 31.3123282,36.1085937 L31.1110062,38.1842187 L33.4032515,38.414375 L34,32.2623437 L27.9536599,31.6551562 Z" id="Path" fill="#E00000"></path>
                    <path d="M26.8039454,1 L26,2.96235506 C26.968779,3.24099219 27.9174181,3.5901012 28.8195043,4 L30,2.17623735 C28.9775696,1.71163466 27.9022307,1.31591323 26.8039454,1 Z" id="Path" fill="#C3C3C3"></path>
                    <path d="M39.4232275,15 L37,15.499332 C37.2529368,16.3155189 37.4242273,17.1569103 37.5090394,18 L40,17.8333522 C39.9039407,16.8783713 39.7099059,15.9250889 39.4232275,15 Z" id="Path" fill="#C3C3C3"></path>
                    <path d="M32.48936,4 L31,5.93332789 C31.7915203,6.55748019 32.5378155,7.25271673 33.2180497,8 L35,6.33932511 C34.2299616,5.49358608 33.3852211,4.70651197 32.48936,4 Z" id="Path" fill="#C3C3C3"></path>
                    <path d="M36.663772,9 L35,10.3353104 C35.4516407,11.1806955 35.8484587,12.0772668 36.1793172,13 L38,12.0194183 C37.625058,10.9736757 37.1754723,9.9578323 36.663772,9 Z" id="Path" fill="#C3C3C3"></path>
                    <path d="M36.1787182,27 C35.8480884,27.9231894 35.4514917,28.8200577 35,29.6658272 L36.6644199,31 C37.1759116,30.0418782 37.6252818,29.02559 38,27.9794061 L36.1787182,27 Z" id="Path" fill="#C3C3C3"></path>
                    <path d="M37.5076962,22 C37.4234274,22.8433997 37.2525561,23.6851009 37,24.5017325 L39.4247055,25 C39.7110191,24.0744616 39.9045621,23.1207962 40,22.1655004 L37.5076962,22 Z" id="Path" fill="#C3C3C3"></path>
                    <path d="M8.52290691,22.7290557 C8.6576625,22.3957568 8.85204512,22.0856215 9.10006907,21.8137138 L10.6343335,20.1321552 C11.4439414,19.2448216 11.8898012,18.098676 11.8898012,16.9049163 C11.8898012,15.3031435 10.5687207,14 8.94490062,14 C7.3210805,14 6,15.3031435 6,16.9049163 L6,17.7699189 L8.30220244,17.7699189 L8.30220244,16.9049163 C8.30220244,16.5553422 8.59051493,16.2709443 8.94490062,16.2709443 C9.29928632,16.2709443 9.5875988,16.5553422 9.5875988,16.9049163 C9.5875988,17.5367687 9.35162305,18.1433379 8.92310644,18.6129692 L7.38891873,20.2945277 C6.49336198,21.2761055 6.00007674,22.5439737 6.00007674,23.8645279 L6.00007674,25 L12,25 L12,22.7290557 L8.52290691,22.7290557 Z" id="Path" fill="#E00000"></path>
                    <path d="M19.0664581,20.107777 L19.0664581,14 L16.3847415,14 L13,19.8274818 L13,22.3983938 L16.8313217,22.3983938 L16.8313217,25 L19.0664581,25 L19.0664581,22.3983938 L20,22.3983938 L20,20.107777 L19.0664581,20.107777 Z M16.8312472,20.107777 L15.4383102,20.107777 L16.8312472,17.7095012 L16.8312472,20.107777 Z" id="Shape" fill="#E00000" fill-rule="nonzero"></path>
                    <polygon id="Path" fill="#E00000" points="28 14 28 16.2470992 31.2006854 16.2470992 29.5723967 24.5820395 31.8511351 25 34 14"></polygon>
                    <polygon id="Rectangle" fill="#E00000" transform="translate(23.909205, 19.441848) rotate(-80.630926) translate(-23.909205, -19.441848) " points="18.279837 18.2698862 29.5385727 18.2698862 29.5385727 20.613809 18.279837 20.613809"></polygon>
                </g>
            </g>
        </g>
    </g>
</svg>