<?xml version="1.0" encoding="UTF-8"?>
<svg width="61px" height="61px" viewBox="0 0 61 61" version="1.1" xmlns="http://www.w3.org/2000/svg" xmlns:xlink="http://www.w3.org/1999/xlink">
    <!-- Generator: sketchtool 52.2 (67145) - http://www.bohemiancoding.com/sketch -->
    <title>EA583869-33DA-4980-B2F8-9A8910FB0F55</title>
    <desc>Created with sketchtool.</desc>
    <g id="Page-1" stroke="none" stroke-width="1" fill="none" fill-rule="evenodd">
        <g id="О-нас-(Моб)" transform="translate(-159.000000, -1275.000000)" fill="#4F4F4F">
            <g id="24/7" transform="translate(1.000000, 1215.000000)">
                <g id="24-hours" transform="translate(158.000000, 60.000000)">
                    <path d="M38.4063781,38.5589429 C38.5175399,38.8980804 38.6842825,39.180695 38.8510251,39.4067866 C39.0733485,39.6328783 39.295672,39.802447 39.5735763,39.9720158 C39.8514806,40.0850616 40.129385,40.1415845 40.4628702,40.1415845 C40.7963554,40.1415845 41.0742597,40.0850616 41.352164,39.9720158 C41.6300683,39.8589699 41.8523918,39.6894012 42.0747153,39.4633095 C42.2970387,39.2372179 42.4637813,38.9546033 42.5193622,38.6154658 C42.6305239,38.3328512 42.6305239,37.9937138 42.6305239,37.5980534 L42.6305239,36.1849805 C42.9640091,36.1849805 43.2419134,36.1284576 43.4642369,36.0719347 C43.7977221,36.0154118 44.0200456,35.9023659 44.2979499,35.7327972 C44.7981777,35.3936597 45.076082,34.8284306 45.076082,34.0936327 C45.076082,33.6979723 45.0205011,33.3588348 44.8537585,33.0762202 C44.6870159,32.7370827 44.4091116,32.4544682 44.0756264,32.3414223 C43.853303,32.2283765 43.5753986,32.1718536 43.2419134,32.1153307 C43.01959,32.0588078 42.8528474,32.0588078 42.5749431,32.0588078 L42.5749431,23.7499394 C42.5749431,22.9020957 42.3526196,22.1672978 41.9635535,21.7151145 C41.5189066,21.2064082 40.9075171,20.9237937 40.0738041,20.9237937 C39.7958998,20.9237937 39.5179954,20.9803166 39.295672,21.0933624 C39.0733485,21.2064082 38.8510251,21.3194541 38.6287016,21.5455457 C38.461959,21.6585916 38.2952164,21.8846832 38.1284738,22.1107749 C37.9617312,22.3368665 37.7394077,22.5629582 37.5726651,22.8455728 L31.6255125,31.0979182 C31.5143508,31.267487 31.4587699,31.3240099 31.4031891,31.3805328 C31.4031891,31.4370557 31.3476082,31.4935786 31.2364465,31.6066245 C31.1808656,31.7196703 31.1252847,31.7761932 31.014123,31.889239 C30.9585421,32.0022849 30.9029613,32.0588078 30.8473804,32.1718536 C30.7917995,32.2848994 30.7362187,32.3979453 30.6806378,32.5109911 C30.5694761,32.6240369 30.5138952,32.7370827 30.5138952,32.7936057 C30.4583144,32.9066515 30.4583144,33.0196973 30.4027335,33.1327431 C30.4027335,33.245789 30.3471526,33.3588348 30.3471526,33.4718806 C30.3471526,33.867541 30.4027335,34.2066785 30.5138952,34.545816 C30.6250569,34.8849535 30.8473804,35.167568 31.1252847,35.4501826 C31.6255125,35.9023659 32.3480638,36.1849805 33.2929385,36.1849805 L38.2952164,36.1849805 L38.2952164,37.5415304 C38.2952164,37.8806679 38.3507973,38.2198054 38.4063781,38.5589429 Z M35.7384966,32.0022849 L38.3507973,28.3848183 L38.3507973,32.0022849 L35.7384966,32.0022849 Z" id="Shape" fill-rule="nonzero"></path>
                    <path d="M23.6774487,27.932635 C23.6218679,28.0456809 23.5107062,28.2717725 23.3439636,28.4413413 C23.2328018,28.6674329 23.0660592,28.8370017 22.8437358,29.0630933 C22.6769932,29.289185 22.4546697,29.4587537 22.2323462,29.6848454 C22.0100228,29.910937 21.7321185,30.0805058 21.4542141,30.3065974 C21.2874715,30.4196433 21.0095672,30.6457349 20.676082,30.9283495 C20.3981777,31.2109641 20.0091116,31.4935786 19.6200456,31.889239 C19.2309795,32.2848994 18.7863326,32.6805598 18.2861048,33.1892661 C17.8414579,33.6414494 17.3412301,34.1501556 16.8410023,34.7153847 C16.6742597,34.8849535 16.5075171,35.1110451 16.3963554,35.2806139 C16.2851936,35.5067055 16.118451,35.7327972 16.0072893,36.0154118 C15.8961276,36.2980263 15.7849658,36.524118 15.729385,36.7502096 C15.6738041,37.0328242 15.6182232,37.2589159 15.6182232,37.4284846 C15.6182232,37.7676221 15.6738041,38.0502367 15.7849658,38.3328512 C15.8961276,38.6154658 16.0628702,38.8980804 16.3407745,39.124172 C16.5630979,39.3502637 16.8965831,39.5763554 17.2300683,39.6894012 C17.5635535,39.802447 17.8970387,39.8589699 18.2305239,39.8589699 L26.6788155,39.8589699 C27.0123007,39.8589699 27.3457859,39.802447 27.5681093,39.6894012 C27.9015945,39.5763554 28.123918,39.4067866 28.3462415,39.180695 C28.5129841,38.9546033 28.6797267,38.7285116 28.7908884,38.50242 C28.9020501,38.2198054 28.957631,37.9937138 28.957631,37.7110992 C28.957631,37.3719617 28.9020501,37.0893471 28.7908884,36.8067326 C28.6797267,36.524118 28.4574032,36.2980263 28.2350797,36.0719347 C28.0127563,35.9023659 27.7348519,35.7327972 27.4013667,35.6197514 C27.1234624,35.5632284 26.7899772,35.5067055 26.4009112,35.5067055 L22.0656036,35.5067055 C22.1767654,35.3936597 22.2879271,35.2806139 22.3990888,35.167568 C22.7881549,34.7719076 23.2883827,34.3762472 23.8441913,33.9240639 C24.3444191,33.4718806 24.8446469,33.0762202 25.2892938,32.6805598 C25.7339408,32.2848994 26.067426,32.0022849 26.3453303,31.7761932 C26.6232346,31.5501015 26.901139,31.2109641 27.1790433,30.8718266 C27.4569476,30.5326891 27.6792711,30.1370287 27.9571754,29.7413683 C28.2350797,29.289185 28.4574032,28.7804787 28.5685649,28.2717725 C28.6797267,27.7630663 28.7908884,27.2543601 28.7908884,26.6891309 C28.7908884,26.3499934 28.7353075,26.010856 28.6797267,25.6151956 C28.6241458,25.2760581 28.5129841,24.9369206 28.4018223,24.5977831 C28.2906606,24.2586456 28.123918,23.976031 27.9015945,23.6368936 C27.7348519,23.354279 27.5125285,23.0716644 27.290205,22.7890498 C27.0678815,22.5629582 26.7899772,22.2803436 26.5120729,22.1107749 C26.2341686,21.8846832 25.9562642,21.7151145 25.622779,21.6020686 C25.1781321,21.375977 24.6223235,21.2629312 24.0665148,21.1498853 C23.5107062,21.0368395 22.8993166,20.9803166 22.2879271,20.9803166 C21.7876993,20.9803166 21.2874715,21.0368395 20.7872437,21.0933624 C20.2870159,21.1498853 19.842369,21.3194541 19.453303,21.4890228 C19.0642369,21.6585916 18.6751708,21.8281603 18.3416856,22.054252 C18.0082005,22.2803436 17.6747153,22.5064353 17.3968109,22.7890498 C17.1189066,23.0716644 16.8965831,23.354279 16.6742597,23.6368936 C16.4519362,23.976031 16.2851936,24.2586456 16.1740319,24.5977831 C16.0628702,24.9369206 15.9517084,25.2760581 15.8405467,25.5586726 C15.7849658,25.8978101 15.729385,26.2369476 15.729385,26.5760851 C15.729385,26.9152226 15.7849658,27.1978371 15.8961276,27.4239288 C16.0072893,27.7065434 16.1740319,27.932635 16.3407745,28.1587267 C16.5630979,28.3848183 16.7854214,28.4978642 17.0077449,28.61091 C17.2856492,28.7239558 17.5079727,28.7804787 17.8414579,28.7804787 C18.1749431,28.7804787 18.4528474,28.7239558 18.7307517,28.61091 C19.008656,28.4978642 19.2309795,28.3282954 19.453303,28.0456809 C19.6200456,27.8761121 19.7312073,27.6500205 19.842369,27.3674059 C19.9535308,27.1413142 20.0646925,26.8586997 20.1758542,26.5760851 C20.2870159,26.3499934 20.3425968,26.1239018 20.3981777,26.010856 C20.6205011,25.6717185 20.8428246,25.4456268 21.1207289,25.2760581 C21.3986333,25.1064893 21.7321185,25.0499664 22.0656036,25.0499664 C22.2323462,25.0499664 22.3990888,25.0499664 22.5658314,25.1064893 C22.732574,25.1630122 22.8437358,25.2195352 23.0104784,25.2760581 C23.177221,25.332581 23.2883827,25.4456268 23.3995444,25.5586726 C23.5107062,25.6717185 23.6218679,25.7847643 23.6774487,25.8978101 C23.7330296,26.010856 23.7886105,26.1804247 23.8441913,26.3499934 C23.8997722,26.5195622 23.8997722,26.6891309 23.8997722,26.8586997 C23.8997722,27.0282684 23.8997722,27.1978371 23.8441913,27.3674059 C23.7886105,27.5369746 23.7330296,27.7630663 23.6774487,27.932635 Z" id="Path"></path>
                    <path d="M2.05649203,32.6240369 C3.16810934,32.6240369 4.11298405,31.7196703 4.11298405,30.5326891 C4.11298405,23.2412332 7.00318907,16.6845751 11.7275626,11.8801274 C16.3963554,7.13220262 22.8993166,4.13648817 30.0692483,4.13648817 C35.3494305,4.13648817 40.3517084,5.77565268 44.5202733,8.60179839 C47.2993166,10.5235775 49.6892938,12.9540628 51.5790433,15.8367314 L49.2446469,14.9323648 C48.1886105,14.5367044 47.0214123,15.0454106 46.6323462,16.119346 C46.2432802,17.1932813 46.743508,18.3802625 47.7995444,18.7759229 L55.1362187,21.7151145 C55.6364465,21.9412061 56.1922551,21.9412061 56.6924829,21.7151145 C57.2482916,21.4890228 57.6373576,21.0368395 57.8596811,20.4716104 L60.7498861,13.0105857 C61.1389522,11.9366503 60.6387244,10.7496691 59.5826879,10.3540087 C58.5266515,9.95834833 57.3594533,10.4670546 56.9703872,11.5409899 L55.7476082,14.762796 C53.4687927,10.9192379 50.4118451,7.69743176 46.7990888,5.26694645 C41.9635535,1.93209451 36.1831435,0.066838346 30.0692483,0.066838346 C21.7876993,0.066838346 14.2842825,3.4582132 8.8929385,8.99745879 C3.3904328,14.4801815 -5.68434189e-14,22.1107749 -5.68434189e-14,30.5326891 C-4.89449028e-14,31.6631474 0.944874715,32.6240369 2.05649203,32.6240369 Z" id="Path"></path>
                    <path d="M58.7489749,28.4413413 C57.6373576,28.4413413 56.6924829,29.3457079 56.6924829,30.5326891 C56.6924829,37.824145 53.8022779,44.3808031 49.0779043,49.1852508 C44.4091116,53.9331756 37.9061503,56.92889 30.7362187,56.92889 C25.4560364,56.92889 20.4537585,55.2897255 16.2851936,52.4635798 C13.5061503,50.5418007 11.1161731,48.1113154 9.22642369,45.2286468 L11.56082,46.1330134 C12.6168565,46.5286738 13.7840547,46.0199676 14.1731207,44.9460322 C14.5621868,43.8720968 14.061959,42.6851156 13.0059226,42.2894552 L5.66924829,39.3502637 C5.1690205,39.124172 4.61321185,39.124172 4.11298405,39.3502637 C3.5571754,39.5763554 3.16810934,40.0285387 2.94578588,40.5937678 L0.166742597,48.0547925 C-0.222323462,49.1287278 0.277904328,50.315709 1.33394077,50.7113694 C2.38997722,51.1070298 3.5571754,50.5983236 3.94624146,49.5243882 L5.1690205,46.3025821 C7.44783599,50.1461403 10.5047836,53.3679464 14.1175399,55.7984317 C18.9530752,59.1332837 24.7334852,60.9985398 30.8473804,60.9985398 C39.1289294,60.9985398 46.6323462,57.607165 52.0236902,52.0679194 C57.470615,46.5286738 60.805467,38.9546033 60.805467,30.5326891 C60.805467,29.4022308 59.8605923,28.4413413 58.7489749,28.4413413 Z" id="Path"></path>
                </g>
            </g>
        </g>
    </g>
</svg>