<?xml version="1.0" encoding="UTF-8"?>
<svg width="80px" height="80px" viewBox="0 0 80 80" version="1.1" xmlns="http://www.w3.org/2000/svg" xmlns:xlink="http://www.w3.org/1999/xlink">
    <!-- Generator: sketchtool 52.2 (67145) - http://www.bohemiancoding.com/sketch -->
    <title>BC03EB3D-166B-4ABD-8A00-3ACD73CFBDD7</title>
    <desc>Created with sketchtool.</desc>
    <g id="Page-1" stroke="none" stroke-width="1" fill="none" fill-rule="evenodd">
        <g id="Главная-языки" transform="translate(-1076.000000, -2967.000000)" fill="#4F4F4F" fill-rule="nonzero">
            <g id="Вещи" transform="translate(455.000000, 2728.000000)">
                <g id="Group" transform="translate(34.000000, 224.000000)">
                    <g id="Шины" transform="translate(566.000000, 0.000000)">
                        <g id="alloy-wheel" transform="translate(21.000000, 15.000000)">
                            <path d="M40,0 C18,0 0,18 0,40 C0,62 18,80 40,80 C62,80 80,62 80,40 C80,18 62,0 40,0 Z M40,77.3332812 C19.4667187,77.3332812 2.66671875,60.5332812 2.66671875,40 C2.66671875,19.4667187 19.4667187,2.66671875 40,2.66671875 C60.5332812,2.66671875 77.3332812,19.4667188 77.3332812,40 C77.3332812,60.5332812 60.5332812,77.3332812 40,77.3332812 Z" id="Shape"></path>
                            <path d="M44.7725,11.0598437 L44.2667187,10.9334375 C43.6,10.8001562 43.0667187,10.6667187 42.4,10.6667187 C40.9332812,10.5334375 39.2,10.5334375 37.7332812,10.6667187 C37.0665625,10.8 36.5332812,10.8 35.8665625,10.9334375 L34.6665625,11.0667187 L34.6665625,11.1575 C27.6465625,12.460625 21.4845312,16.2851562 17.161875,21.6476562 L17.0665625,21.6 L16.3998437,22.5332812 C15.0665625,24.4 13.8665625,26.2665625 13.0665625,28.2665625 L12.6665625,29.3332812 L12.6820312,29.3440625 C11.3820312,32.6510937 10.6665625,36.2459375 10.6665625,40 C10.6665625,43.0596875 11.1423437,46.0132813 12.0217187,48.7920312 L11.9998437,48.8 L12.3998437,50 C13.0665625,51.7332812 13.8665625,53.4667187 14.7998437,55.0667187 C14.7998437,55.3334375 14.933125,55.4667187 15.0665625,55.6 C15.3332812,56 15.7332812,56.5332813 15.9998437,56.9332813 L16.6665625,57.7332813 L16.67375,57.7301563 C21.7354687,64.3639063 29.5496875,68.7982813 38.3723437,69.286875 C38.885,69.3320312 39.441875,69.333125 39.9998437,69.333125 C40.5578125,69.333125 41.1145312,69.3320312 41.6273437,69.286875 C50.3420312,68.8042188 58.0734375,64.4721875 63.1395312,57.9729688 L63.1998437,57.9998438 L63.8665625,57.0665625 C64.2665625,56.6665625 64.5332812,56.1332812 64.7998437,55.7332813 C64.7998437,55.6782812 64.8232812,55.6001562 64.859375,55.5184375 C64.92,55.4220313 64.9810937,55.3260937 65.040625,55.2289063 C65.0492187,55.2192187 65.0578125,55.2085937 65.0665625,55.1998437 C65.1198438,55.1085938 65.1710937,55.0153125 65.2234375,54.9232813 C67.8309375,50.5442188 69.333125,45.439375 69.333125,39.9998438 C69.3332812,25.4909375 58.6567188,13.3565625 44.7725,11.0598437 Z M42.6667188,54.6667188 L42.6667188,66.5328125 C42.6646875,66.5329688 42.6625,66.533125 42.6604687,66.5334375 C42.5253125,66.5334375 42.2648437,66.5334375 42.1334375,66.5334375 C40.6667188,66.6667188 39.3334375,66.6667188 37.8667188,66.5334375 C37.8,66.5334375 37.7,66.5334375 37.6,66.5334375 L37.6,54.6667188 C37.6,52.6667188 36.6667188,50.9334375 34.9332813,49.8667188 C33.1998437,48.8 31.2,48.8 29.4665625,49.6 L17.8665625,54.5332813 C17.7332813,54.4 17.7332813,54.2665625 17.5998438,54.1332813 L17.333125,53.7332813 C16.6664063,52.6665625 16.133125,51.6 15.5998438,50.4 L26.2665625,46.4 L26.3998438,46.2667188 C27.8665625,45.4667188 28.933125,43.7334375 29.1998438,41.7334375 C29.4665625,39.7334375 28.933125,37.7334375 27.5998438,36.4001563 L16.004375,28.4032813 C16.565,27.2520313 17.2057813,26.1460938 17.92,25.0935938 L28.2665625,30.266875 C29.9998437,31.466875 32.5332813,31.466875 34.5332813,30.4001563 C36.2665625,29.3334375 37.3332812,27.7334375 37.3332812,25.7334375 L37.3332812,13.4671875 C37.3353125,13.4670312 37.3375,13.466875 37.3395313,13.4665625 C37.4746875,13.4665625 37.7351563,13.4665625 37.8665625,13.4665625 C39.3332812,13.3332812 40.7998437,13.3332812 42.1332812,13.4665625 C42.2646875,13.4665625 42.5253125,13.4665625 42.6603125,13.4665625 C42.6623437,13.4667187 42.6645312,13.466875 42.6665625,13.4671875 L42.6665625,25.8667187 C42.6665625,27.6 43.4665625,29.2 44.9332813,30.1334375 C46.8,31.2001562 49.4665625,31.3334375 51.6,30.4001562 L62,25.066875 C62.6667187,26.1335937 63.3332813,27.3335937 63.8667188,28.4001562 L52.5334375,36.266875 L52.4001563,36.4001562 C51.066875,37.6001562 50.5334375,39.6001562 50.8001562,41.7334375 C51.066875,43.7334375 52.1334375,45.4667187 53.6001563,46.2667187 L64.5334375,50.2667188 C64.0001563,51.4667188 63.4667188,52.5334375 62.8001563,53.6 L62.5334375,54 C62.4001563,54.1332812 62.4001563,54.2667187 62.2667188,54.4 L50.8,49.6 C49.0667187,48.6667188 47.0667187,48.8 45.3332812,49.8667187 C43.7332812,50.9332813 42.6667188,52.6667188 42.6667188,54.6667188 Z M54.8,44.1332813 C54,43.6 53.4667187,42.6665625 53.3332812,41.6 C53.2,40.4 53.4665625,39.2 54.1332813,38.5332813 L65.0725,30.9428125 C66.1029688,33.77375 66.6665625,36.8242187 66.6665625,40 C66.6665625,42.7970313 66.2289062,45.4965625 65.4207813,48.0348438 L54.8,44.1332813 Z M60.44125,22.9253125 L50.4,28 C49.2,28.6667187 47.4667187,28.5332812 46.4,27.8667187 C45.7332812,27.4667187 45.3332812,26.8 45.3332812,25.8667187 L45.3332812,13.873125 C51.3434375,15.105625 56.6323437,18.3771875 60.44125,22.9253125 Z M34.6667187,13.873125 L34.6667187,25.7334375 C34.6667187,26.9334375 34,27.6001563 33.3334375,28.0001563 C32.1334375,28.5334375 30.6667187,28.5334375 29.6001562,27.866875 L19.6060937,22.8698438 C23.41125,18.350625 28.68125,15.1004687 34.6667187,13.873125 Z M13.3332812,40 C13.3332812,36.8120313 13.9007812,33.7501563 14.9389062,30.91 L25.7332812,38.4 C26.4,39.0667188 26.6665625,40.2667188 26.5332812,41.4667188 C26.2665625,42.6667188 25.8665625,43.6 25.0665625,44 L14.5267187,47.8717188 C13.7517187,45.3810938 13.3332812,42.7370313 13.3332812,40 Z M19.2173437,56.658125 L30.2667188,52 C31.2,51.4667188 32.2667188,51.6 33.2,52.1332813 C34.1332813,52.6665625 34.6667188,53.6 34.6667188,54.6665625 L34.6667188,66.126875 C28.4746875,64.8571875 23.0484375,61.4228125 19.2173437,56.658125 Z M45.3332812,66.126875 L45.3332812,54.6665625 C45.3332812,53.5998438 45.8665625,52.6665625 46.6665625,52.1332813 C47.5998438,51.6 48.6665625,51.4665625 49.7332813,52 L60.6254688,56.8529688 C56.8039063,61.5165625 51.4407813,64.8745313 45.3332812,66.126875 Z" id="Shape"></path>
                            <path d="M40,33.3332812 C36.2667187,33.3332812 33.3332812,36.2665625 33.3332812,40 C33.3332812,43.7332813 36.2665625,46.6667188 40,46.6667188 C43.7332813,46.6667188 46.6667188,43.7334375 46.6667188,40 C46.6667187,36.2667187 43.7332812,33.3332812 40,33.3332812 Z M40,44 C37.7332812,44 36,42.2667187 36,40 C36,37.7332813 37.7332812,36 40,36 C42.2667187,36 44,37.7332813 44,40 C44,42.2667187 42.2667187,44 40,44 Z" id="Shape"></path>
                        </g>
                    </g>
                </g>
            </g>
        </g>
    </g>
</svg>