<?xml version="1.0" encoding="UTF-8"?>
<svg width="60px" height="60px" viewBox="0 0 60 60" version="1.1" xmlns="http://www.w3.org/2000/svg" xmlns:xlink="http://www.w3.org/1999/xlink">
    <!-- Generator: sketchtool 52.2 (67145) - http://www.bohemiancoding.com/sketch -->
    <title>385FD940-1ED7-47B5-B85E-F5F4A9A99D2B</title>
    <desc>Created with sketchtool.</desc>
    <g id="Page-1" stroke="none" stroke-width="1" fill="none" fill-rule="evenodd">
        <g id="Главная-языки" transform="translate(-555.000000, -2317.000000)" fill="#4F4F4F" fill-rule="nonzero">
            <g id="Как-оформить" transform="translate(401.000000, 2128.000000)">
                <g id="Group-4" transform="translate(0.000000, 129.000000)">
                    <g id="24/7">
                        <g id="area" transform="translate(154.000000, 60.000000)">
                            <path d="M58.2871894,46.9759685 C60.5674342,49.2562135 60.5674342,52.9660088 58.2871894,55.2462537 C58.2839912,55.2499087 58.2803363,55.2531067 58.2766813,55.2567616 L54.2754021,59.208242 C53.8194444,59.6582602 53.2255117,59.8830409 52.6320358,59.8830409 C52.0280519,59.8830409 51.4249818,59.6509503 50.9671966,59.1876828 C50.0598502,58.2684575 50.0689876,56.7872807 50.9882127,55.8794773 L53.3292215,53.5672515 L15.7894737,53.5672515 C10.6300256,53.5672515 6.43274854,49.3699744 6.43274854,44.2105263 L6.43274854,6.61412643 L4.09904971,8.91675801 C3.17936772,9.82410456 1.69819076,9.81405333 0.790844327,8.89437135 C-0.116502222,7.97468936 -0.106450994,6.4935124 0.813230994,5.58616596 L4.76516819,1.68768281 C7.03901684,-0.555555556 10.7387609,-0.555555556 13.0126096,1.68768281 L16.9645468,5.58616596 C17.8842288,6.4935124 17.89428,7.97468936 16.9869335,8.89437135 C16.5291484,9.35809579 15.9256213,9.59064327 15.3216374,9.59064327 C14.7281615,9.59064327 14.1346856,9.36631942 13.6787281,8.91675801 L11.1111111,6.38340643 L11.1111111,44.2105263 C11.1111111,46.790022 13.209978,48.8888889 15.7894737,48.8888889 L53.5663378,48.8888889 L50.9882127,46.3427449 C50.0689876,45.4349415 50.0593932,43.9537647 50.9671966,43.0345394 C51.875,42.1157712 53.3561768,42.1061768 54.2754021,43.0139802 L58.2766813,46.9654606 C58.2803363,46.9691156 58.2839912,46.9723136 58.2871894,46.9759685 Z M52.9824561,0 L22.6900585,0 C21.3948282,0 20.3463085,1.05263158 20.3508772,2.34786187 C20.3559028,3.63623906 21.4016813,4.67836257 22.6900585,4.67836257 L52.9824561,4.67836257 C54.2744883,4.67836257 55.3216374,5.7255117 55.3216374,7.01754386 L55.3216374,37.4269006 C55.3216374,38.7152778 56.3637609,39.7615132 57.6521381,39.7660819 C58.9473684,39.7706505 60,38.7221309 60,37.4269006 L60,7.01754386 C60,3.14190421 56.8580958,0 52.9824561,0 Z M34.502924,40.1041667 C35.7949561,40.1041667 36.8421053,39.0570175 36.8421053,37.7649854 L36.8421053,27.3538012 C36.8421053,23.806652 33.9565058,20.9210526 30.4093567,20.9210526 C28.8555373,20.9210526 27.4287281,21.4747807 26.3157895,22.3953765 C25.2028509,21.4747807 23.7760416,20.9210526 22.2222222,20.9210526 C21.3299525,20.9210526 20.479258,21.104258 19.7062317,21.4341192 C19.290022,21.0530884 18.7372076,20.8187135 18.128655,20.8187135 C16.8366228,20.8187135 15.7894737,21.8658626 15.7894737,23.1578947 L15.7894737,37.7777778 C15.7894737,39.0698099 16.8366228,40.1169591 18.128655,40.1169591 C19.4206871,40.1169591 20.4678363,39.0698099 20.4678363,37.7777778 L20.4678363,27.3538012 C20.4678363,26.3866046 21.2550256,25.5994152 22.2222222,25.5994152 C23.1894188,25.5994152 23.9766082,26.3866046 23.9766082,27.3538012 L23.9766082,37.7777778 C23.9766082,39.0698099 25.0237573,40.1169591 26.3157895,40.1169591 C27.6078216,40.1169591 28.6549708,39.0698099 28.6549708,37.7777778 L28.6549708,27.3538012 C28.6549708,26.3866046 29.4421601,25.5994152 30.4093567,25.5994152 C31.3765533,25.5994152 32.1637427,26.3866046 32.1637427,27.3538012 L32.1637427,37.7649854 C32.1637427,39.0570175 33.2108918,40.1041667 34.502924,40.1041667 Z M45.1169591,12.6315789 C45.1046235,12.6315789 45.0927449,12.6334064 45.0804094,12.6334064 C45.0685308,12.6334064 45.056652,12.6315789 45.0443165,12.6315789 C42.0696271,12.6315789 39.6491228,15.0548246 39.6491228,18.0331689 C39.6491228,19.3247441 40.6962719,20.3723502 41.9883041,20.3723502 C43.2803363,20.3723502 44.3274854,19.3247441 44.3274854,18.0331689 C44.3274854,17.6411732 44.6559759,17.3099415 45.0443165,17.3099415 C45.056652,17.3099415 45.0685308,17.308114 45.0808662,17.308114 C45.0927449,17.308114 45.1046235,17.3099415 45.1169591,17.3099415 C45.4893092,17.3099415 45.8063779,17.6142178 45.8319627,17.9847405 C45.7858187,18.1560673 45.4271747,19.2155519 43.1857639,21.6812865 C41.7955043,23.209978 40.4294591,24.4549525 40.4162098,24.4668311 C39.7002924,25.1165022 39.4581506,26.139894 39.8062865,27.0413012 C40.1544225,27.9431651 41.0215643,28.5380117 41.9883041,28.5380117 L48.3040936,28.5380117 C49.5961257,28.5380117 50.6432749,27.4908626 50.6432749,26.1988304 C50.6432749,24.9067982 49.5961257,23.8596491 48.3040936,23.8596491 L47.4995432,23.8596491 C49.5764802,21.4144737 50.5121527,19.5947551 50.5121527,18.0331689 C50.5121527,15.0548246 48.0916484,12.6315789 45.1169591,12.6315789 Z" id="Shape"></path>
                        </g>
                    </g>
                </g>
            </g>
        </g>
    </g>
</svg>