<?xml version="1.0" encoding="UTF-8"?>
<svg width="60px" height="111px" viewBox="0 0 15 9" version="1.1" xmlns="http://www.w3.org/2000/svg" xmlns:xlink="http://www.w3.org/1999/xlink">
	<!-- Generator: sketchtool 52.2 (67145) - http://www.bohemiancoding.com/sketch -->
	<title>1AE43BAC-4943-426A-8848-1AE24B8F2FE1</title>
	<desc>Created with sketchtool.</desc>
	<g id="Page-1" stroke="none" stroke-width="1" fill="none" fill-rule="evenodd">
		<g id="FAQ-(Моб)" transform="translate(-320.000000, -511.000000)" fill="#4F4F4F">
			<g id="Вопрос" transform="translate(20.000000, 484.000000)">
				<g id="Path-2" transform="translate(307.500000, 31.500000) rotate(-90.000000) translate(-307.500000, -31.500000) translate(300.000000, 27.000000)">
					<path d="M11.4772387,4.9467847 L5.44276647,10.9810706 C5.05890114,11.3651223 4.43652932,11.3651223 4.05285035,10.9810706 C3.66914032,10.5973606 3.66914032,9.9750198 4.05285035,9.59134083 L9.39242666,4.25191982 L4.05300565,-1.08731483 C3.66929562,-1.47118016 3.66929562,-2.09345881 4.05300565,-2.47716884 C4.43671568,-2.86103416 5.05905644,-2.86103416 5.44292177,-2.47716884 L11.477394,3.55721024 C11.669249,3.74915843 11.7650678,4.00046147 11.7650678,4.25188876 C11.7650678,4.50344028 11.6690627,4.75492969 11.4772387,4.9467847 Z" id="Path" transform="translate(7.765068, 4.252021) rotate(-90.000000) translate(-7.765068, -4.252021) "></path>
				</g>
			</g>
		</g>
	</g>
</svg>