<?xml version="1.0" encoding="UTF-8"?>
<svg width="80px" height="86px" viewBox="0 0 80 86" version="1.1" xmlns="http://www.w3.org/2000/svg" xmlns:xlink="http://www.w3.org/1999/xlink">
    <!-- Generator: sketchtool 52.2 (67145) - http://www.bohemiancoding.com/sketch -->
    <title>F863D71E-FD58-4EDB-ACFC-47154FAF4722</title>
    <desc>Created with sketchtool.</desc>
    <g id="Page-1" stroke="none" stroke-width="1" fill="none" fill-rule="evenodd">
        <g id="Главная-языки" transform="translate(-798.000000, -3197.000000)" fill="#4F4F4F">
            <g id="Вещи" transform="translate(455.000000, 2728.000000)">
                <g id="Group" transform="translate(0.000000, 468.000000)">
                    <g id="Товары" transform="translate(283.000000, 1.000000)">
                        <g id="box" transform="translate(60.000000, 0.000000)">
                            <path d="M79.2881667,18.8285 L40.5435,0.124166667 C40.2,-0.0415 39.8,-0.0415 39.4566667,0.124166667 L0.711833333,18.8285 C0.279833333,19.037 0.00533333333,19.4745 0.00533333333,19.9541667 L0.00533333333,65.379 C0.00533333333,65.8586667 0.279833333,66.2961667 0.711833333,66.5046667 L39.4565,85.209 C39.6281667,85.2918333 39.8141667,85.3333333 40,85.3333333 C40.1858333,85.3333333 40.3716667,85.2918333 40.5435,85.209 L79.2881667,66.5046667 C79.7201667,66.2961667 79.9946667,65.8586667 79.9946667,65.379 L79.9946667,19.9543333 C79.9946667,19.4743333 79.72,19.0371667 79.2881667,18.8285 Z M40,2.638 L75.8695,19.9541667 L65.4716667,24.9738333 C65.4058333,24.9236667 65.3363333,24.8773333 65.26,24.8405 L29.6341667,7.64216667 L40,2.638 Z M26.8111667,9.0555 L62.6285,26.3465 L55.2926667,29.888 L19.4901667,12.604 L26.8111667,9.0555 Z M63.4665,28.7178333 L63.4665,41.8088333 L56.6143333,45.1168333 L56.6143333,32.0258333 L63.4665,28.7178333 Z M41.25,82.0916667 L41.25,39.443 L53.5321667,33.7558333 C54.1538333,33.4556667 54.4145,32.7085 54.1143333,32.0866667 C53.8141667,31.4651667 53.067,31.2041667 52.4451667,31.5045 L40,37.2705 L31.1464059,33.018 C30.5245726,32.7175 29.7774059,32.9785 29.4772393,33.6001667 C29.1770726,34.2218333 29.4377393,34.9691667 30.0594059,35.2693333 L38.75,39.443 L38.75,82.0916667 L2.50533333,64.5943333 L2.50533333,21.9456667 L30.1053333,35.2698333 C30.2805,35.3545 30.4656667,35.3945 30.6478333,35.3945 C31.1125,35.3945 31.5588333,35.1341667 31.7743333,34.6876667 C32.0745,34.066 31.8138333,33.3186667 31.1921667,33.0185 L4.1305,19.9541667 L16.548,13.9595 L54.097,32.0866667 C54.1025,32.0943333 54.1086667,32.1011667 54.1143333,32.1086667 L54.1143333,47.1085 C54.1143333,47.5386667 54.3355,47.9385 54.6998333,48.1673333 C54.9021667,48.2943333 55.133,48.3585 55.3645,48.3585 C55.5498333,48.3585 55.7356667,48.3173333 55.9078333,48.2341667 L65.26,43.7193333 C65.692,43.5108333 65.9665,43.0735 65.9665,42.5936667 L65.9665,27.5111667 L77.4946667,21.9458333 L77.4946667,64.5946667 L41.25,82.0916667 Z" id="Shape" fill-rule="nonzero"></path>
                            <path d="M12.821,59.7465 L7.13516667,57.0016667 C6.51316667,56.7011667 5.76616667,56.9621667 5.466,57.5838333 C5.16583333,58.2055 5.4265,58.9528333 6.04816667,59.253 L11.734,61.9978333 C11.9091667,62.0825 12.0943333,62.1225 12.2765,62.1225 C12.7411667,62.1225 13.1875,61.8621667 13.403,61.4156667 C13.7033333,60.7938333 13.4426667,60.0468333 12.821,59.7465 Z" id="Path"></path>
                            <path d="M18.0538333,56.3403333 L7.143,51.073 C6.52116667,50.7728333 5.774,51.0335 5.47383333,51.6553333 C5.17383333,52.277 5.4345,53.0243333 6.05616667,53.3245 L16.967,58.5918333 C17.1421667,58.6763333 17.3273333,58.7165 17.5095,58.7165 C17.9741667,58.7165 18.4205,58.4561667 18.636,58.0096667 C18.9361667,57.3876667 18.6755,56.6403333 18.0538333,56.3403333 Z" id="Path"></path>
                        </g>
                    </g>
                </g>
            </g>
        </g>
    </g>
</svg>