<?xml version="1.0" encoding="UTF-8"?>
<svg width="60px" height="57px" viewBox="0 0 60 57" version="1.1" xmlns="http://www.w3.org/2000/svg" xmlns:xlink="http://www.w3.org/1999/xlink">
    <!-- Generator: sketchtool 52.2 (67145) - http://www.bohemiancoding.com/sketch -->
    <title>A76CF408-2475-4CE4-8183-319EAE0547CC</title>
    <desc>Created with sketchtool.</desc>
    <g id="Page-1" stroke="none" stroke-width="1" fill="none" fill-rule="evenodd">
        <g id="Главная-языки" transform="translate(-1304.000000, -2317.000000)" fill="#4F4F4F" fill-rule="nonzero">
            <g id="Как-оформить" transform="translate(401.000000, 2128.000000)">
                <g id="Group-4" transform="translate(0.000000, 129.000000)">
                    <g id="24/7" transform="translate(749.000000, 0.000000)">
                        <g id="boxes" transform="translate(154.000000, 60.000000)">
                            <path d="M58.1632653,41.6326531 L56.3265306,41.6326531 L56.3265306,22.6530612 C56.3265306,21.6386939 55.5041633,20.8163265 54.4897959,20.8163265 L44.0816327,20.8163265 L44.0816327,1.83673469 C44.0816327,0.822367347 43.2592653,0 42.244898,0 L17.755102,0 C16.7407347,0 15.9183673,0.822367347 15.9183673,1.83673469 L15.9183673,20.8163265 L5.51020408,20.8163265 C4.49583673,20.8163265 3.67346939,21.6386939 3.67346939,22.6530612 L3.67346939,41.6326531 L1.83673469,41.6326531 C0.822367347,41.6326531 0,42.4550204 0,43.4693878 L0,54.4897959 C0,55.5041633 0.822367347,56.3265306 1.83673469,56.3265306 L9.18367347,56.3265306 C10.1980408,56.3265306 11.0204082,55.5041633 11.0204082,54.4897959 L11.0204082,52.6530612 L24.4897959,52.6530612 L24.4897959,54.4897959 C24.4897959,55.5041633 25.3121633,56.3265306 26.3265306,56.3265306 L33.6734694,56.3265306 C34.6878367,56.3265306 35.5102041,55.5041633 35.5102041,54.4897959 L35.5102041,52.6530612 L48.9795918,52.6530612 L48.9795918,54.4897959 C48.9795918,55.5041633 49.8019592,56.3265306 50.8163265,56.3265306 L58.1632653,56.3265306 C59.1776327,56.3265306 60,55.5041633 60,54.4897959 L60,43.4693878 C60,42.4550204 59.1776327,41.6326531 58.1632653,41.6326531 Z M52.6530612,24.4897959 L52.6530612,41.6326531 L31.8367347,41.6326531 L31.8367347,24.4897959 L52.6530612,24.4897959 Z M19.5918367,3.67346939 L40.4081633,3.67346939 L40.4081633,20.8163265 L19.5918367,20.8163265 L19.5918367,3.67346939 Z M7.34693878,24.4897959 L28.1632653,24.4897959 L28.1632653,41.6326531 L7.34693878,41.6326531 L7.34693878,24.4897959 Z M56.3265306,52.6530612 L52.6530612,52.6530612 L52.6530612,50.8163265 C52.6530612,49.8019592 51.8306939,48.9795918 50.8163265,48.9795918 L33.6734694,48.9795918 C32.659102,48.9795918 31.8367347,49.8019592 31.8367347,50.8163265 L31.8367347,52.6530612 L28.1632653,52.6530612 L28.1632653,50.8163265 C28.1632653,49.8019592 27.340898,48.9795918 26.3265306,48.9795918 L9.18367347,48.9795918 C8.16930612,48.9795918 7.34693878,49.8019592 7.34693878,50.8163265 L7.34693878,52.6530612 L3.67346939,52.6530612 L3.67346939,45.3061224 L56.3265306,45.3061224 L56.3265306,52.6530612 Z" id="XMLID_1014_"></path>
                        </g>
                    </g>
                </g>
            </g>
        </g>
    </g>
</svg>