<?xml version="1.0" encoding="UTF-8"?>
<svg width="20px" height="20px" viewBox="0 0 20 20" version="1.1" xmlns="http://www.w3.org/2000/svg" xmlns:xlink="http://www.w3.org/1999/xlink">
    <!-- Generator: sketchtool 52.2 (67145) - http://www.bohemiancoding.com/sketch -->
    <title>A94A3C17-25FD-49F1-A479-C9990EB2B964</title>
    <desc>Created with sketchtool.</desc>
    <g id="Page-1" stroke="none" stroke-width="1" fill="none" fill-rule="evenodd">
        <g id="Поп-ап-склада-(Моб)" transform="translate(-43.000000, -371.000000)" fill="#3D7EBA">
            <g id="call-answer" transform="translate(43.000000, 371.000000)">
                <path d="M19.4998854,15.7640688 L16.4193696,12.6832092 C15.805788,12.0720917 14.7896848,12.090659 14.1547278,12.7258453 L12.6027507,14.2774785 C12.5046991,14.2234384 12.4032092,14.1669914 12.2965043,14.107106 C11.316447,13.5640688 9.97507163,12.8197708 8.56355301,11.4072206 C7.147851,9.99169054 6.40286533,8.64825215 5.85816619,7.66756447 C5.80068768,7.56366762 5.74561605,7.4634957 5.69123209,7.36836676 L6.73283668,6.32830946 L7.24492837,5.81558739 C7.8808596,5.17948424 7.89839542,4.16366762 7.28624642,3.55077364 L4.20573066,0.469570201 C3.59358166,-0.142464183 2.57702006,-0.123896848 1.94108883,0.512206304 L1.07289398,1.38538682 L1.09661891,1.40893983 C0.805501433,1.78040115 0.562234957,2.20882521 0.381203438,2.67083095 C0.214326648,3.11060172 0.110429799,3.53025788 0.0629226361,3.95077364 C-0.343839542,7.32292264 1.19713467,10.4048138 5.3791404,14.5868768 C11.1599427,20.3672779 15.81851,19.9306017 16.0194842,19.9092837 C16.457192,19.8569628 16.8766762,19.7523782 17.3029799,19.5868195 C17.7609742,19.4079083 18.1891117,19.1649857 18.5603438,18.8744986 L18.5793123,18.8913467 L19.4588539,18.030086 C20.093467,17.3940974 20.1117479,16.377937 19.4998854,15.7640688 Z" id="Path"></path>
            </g>
        </g>
    </g>
</svg>