<?xml version="1.0" encoding="UTF-8"?>
<svg width="68px" height="30px" viewBox="0 0 50 21" version="1.1" xmlns="http://www.w3.org/2000/svg" xmlns:xlink="http://www.w3.org/1999/xlink">
    <!-- Generator: sketchtool 52.2 (67145) - http://www.bohemiancoding.com/sketch -->
    <title>986441B1-A46C-4DFF-A808-3D807A72CC17</title>
    <desc>Created with sketchtool.</desc>
    <g id="Page-1" stroke="none" stroke-width="1" fill="none" fill-rule="evenodd">
        <g id="icon-car_calc" transform="translate(-115.000000, -795.000000)" fill="#9E9E9E" fill-rule="nonzero">
            <g id="Машины" transform="translate(20.000000, 695.000000)">
                <g id="Group-2" transform="translate(95.000000, 100.000000)">
                    <g id="car-(2)">
                        <path d="M38.6551282,13.0618434 C36.3840536,13.0618434 34.5364553,14.7966627 34.5364553,16.9291088 C34.5364553,19.0615549 36.3840536,20.7963741 38.6551282,20.7963741 C40.9261064,20.7963741 42.7738012,19.0615549 42.7738012,16.9291088 C42.7738012,14.7966627 40.925335,13.0618434 38.6551282,13.0618434 Z M38.6551282,19.2494136 C37.2927149,19.2494136 36.1838859,18.2083591 36.1838859,16.9290182 C36.1838859,15.6496773 37.2926185,14.6087134 38.6551282,14.6087134 C40.0175416,14.6087134 41.1262741,15.6497679 41.1262741,16.9290182 C41.1262741,18.2082686 40.0175416,19.2494136 38.6551282,19.2494136 Z" id="Shape"></path>
                        <path d="M10.6483258,13.0618434 C8.37725118,13.0618434 6.52965283,14.7966627 6.52965283,16.9291088 C6.52965283,19.0615549 8.37725118,20.7963741 10.6483258,20.7963741 C12.919304,20.7963741 14.7669987,19.0615549 14.7669987,16.9291088 C14.7669023,14.7966627 12.9184362,13.0618434 10.6483258,13.0618434 Z M10.6483258,19.2494136 C9.28591242,19.2494136 8.17708344,18.2083591 8.17708344,16.9290182 C8.17708344,15.6496773 9.285816,14.6087134 10.6483258,14.6087134 C12.0107391,14.6087134 13.1194717,15.6497679 13.1194717,16.9290182 C13.1194717,18.2082686 12.0107391,19.2494136 10.6483258,19.2494136 Z" id="Shape"></path>
                        <path d="M48.5399047,10.5543135 L48.5399047,6.87427325 C48.5399047,6.84955737 48.5085682,6.70406867 48.4920804,6.65382211 C48.4755926,6.60276073 48.4558266,6.55640714 48.4295039,6.50996302 C48.4171622,6.48904959 45.1065845,1.80425908 45.1065845,1.80425908 C44.9805637,1.62717389 44.7820351,1.50567679 44.5571839,1.47009679 C23.9211051,-1.78225923 18.6318945,1.45696931 18.3905554,1.61477068 L11.9933835,6.12012211 L1.52382028,6.87581233 C1.22723263,6.89745004 0.966127513,7.06765462 0.840974468,7.31979279 C0.809637997,7.38162775 0.499165881,8.03682485 0.263515617,9.19385385 L0.0468600761,10.7407238 C-0.0833068045,12.3650006 0.0245870766,14.5244259 0.79478933,17.1394201 C0.891980601,17.4704137 1.22144744,17.7017289 1.58726458,17.7017289 L4.0584105,17.7017289 C4.5155373,17.7017289 4.88135444,17.3490071 4.8821258,16.9197837 C4.8821258,16.9158908 4.88299358,16.9120883 4.88299358,16.9073805 C4.89533533,13.9272613 7.47119327,11.5141587 10.6483258,11.5141587 C13.8328826,11.5141587 16.4144293,13.9381254 16.4144293,16.928294 C16.3551311,17.3978051 16.7496814,17.7017289 17.2381446,17.7017289 L32.0653094,17.7017289 C32.5224362,17.7017289 32.8882533,17.3490071 32.8890247,16.9197837 C32.8890247,16.9151665 32.8898925,16.9112735 32.8898925,16.9066563 C32.903102,13.926537 35.4780921,11.5149735 38.6552246,11.5149735 C41.8397815,11.5149735 44.4213282,13.9389402 44.4213282,16.9291088 C44.36203,17.3986199 44.7565802,17.7025437 45.2450435,17.7025437 L47.7161894,17.7025437 C48.0037136,17.7025437 48.2796674,17.5633019 48.4220796,17.328999 C50.2442231,14.3101311 48.9435185,11.3347196 48.5399047,10.5543135 Z M26.2992058,5.71479982 C26.2992058,5.92827982 26.1146581,6.10156257 25.8873,6.10156257 L15.9983774,6.10237738 C15.6029593,6.10237738 15.4348994,5.62906379 15.7512532,5.40625875 L19.3238037,2.88949434 C19.3361455,2.8801693 19.3460767,2.87401296 19.3600576,2.86631754 C19.5470158,2.76573388 21.2513342,1.91806075 25.8568313,1.65433419 C26.0932529,1.6403919 26.2992058,1.81910671 26.2992058,2.04182121 L26.2992058,5.71479982 Z M34.8816386,6.10156257 L28.3576745,6.10237738 C28.1303164,6.10237738 27.9457686,5.92909463 27.9457686,5.71561463 L27.9457686,1.9666777 C27.9457686,1.75401251 28.1220242,1.57991495 28.348611,1.57837587 C29.6335992,1.56986564 31.083369,1.60390656 32.7168187,1.69670427 C32.8576882,1.70439969 32.9878551,1.77791358 33.0569882,1.89388808 C33.424348,2.51106075 34.638564,4.52671754 35.2414777,5.52675997 C35.3980636,5.78442074 35.1971245,6.10074776 34.8816386,6.10156257 Z M45.4072218,6.10074776 L37.7242904,6.10156257 C37.5768644,6.10156257 37.4401409,6.0273244 37.3667654,5.90664211 L35.2901697,2.49422136 C35.1246167,2.22270884 35.3486966,1.8862832 35.680574,1.91570686 C38.0446938,2.12610869 40.7201535,2.44551388 43.7522704,2.91348594 C43.8650817,2.93123067 43.968926,2.99234136 44.0331416,3.0820609 L45.7498017,5.49987127 C45.931939,5.75662669 45.7359173,6.10074776 45.4072218,6.10074776 Z" id="Shape"></path>
                    </g>
                </g>
            </g>
        </g>
    </g>
</svg>