<?xml version="1.0" encoding="UTF-8"?>
<svg width="68px" height="30px" viewBox="0 0 50 22" version="1.1" xmlns="http://www.w3.org/2000/svg" xmlns:xlink="http://www.w3.org/1999/xlink">
    <!-- Generator: sketchtool 52.2 (67145) - http://www.bohemiancoding.com/sketch -->
    <title>1C3BC7F8-AC88-4386-BE51-812B7359A925</title>
    <desc>Created with sketchtool.</desc>
    <g id="Page-1" stroke="none" stroke-width="1" fill="none" fill-rule="evenodd">
        <g id="icon-car_calc" transform="translate(-20.000000, -795.000000)" fill="#9E9E9E" fill-rule="nonzero">
            <g id="Машины" transform="translate(20.000000, 695.000000)">
                <g id="Group-2" transform="translate(0.000000, 100.000000)">
                    <g id="car-(1)">
                        <path d="M10.7385094,13.5916183 C8.46115125,13.5916183 6.6082688,15.3278302 6.6082688,17.461992 C6.6082688,19.5960631 8.46105444,21.3323657 10.7385094,21.3323657 C13.0158676,21.3323657 14.86875,19.5961538 14.86875,17.461992 C14.86875,15.3279209 13.0159644,13.5916183 10.7385094,13.5916183 Z M10.7385094,19.7841981 C9.37224939,19.7841981 8.2603844,18.7422896 8.2603844,17.461992 C8.2603844,16.1816945 9.37224939,15.1397859 10.7385094,15.1397859 C12.1047694,15.1397859 13.2166344,16.1816945 13.2166344,17.461992 C13.2166344,18.7422896 12.1047694,19.7841981 10.7385094,19.7841981 Z" id="Shape"></path>
                        <path d="M48.7364906,13.5916183 L48.7364906,8.9472061 C48.7364906,8.61438679 48.5092969,8.31785196 48.1714587,8.212627 L43.5109381,6.75662192 C41.7556318,3.970791 39.3427512,1.31957547 34.01062,0.444121916 C34.0007462,0.442579826 33.9907756,0.441037736 33.9809019,0.439495646 C24.1336462,-0.836175617 16.7406056,1.24528302 11.994125,6.62817489 C8.46115125,6.6761611 4.85460815,7.36819666 2.73339124,8.64078374 C1.63478809,9.30025399 0.983021851,10.4482039 0.92184314,11.6697206 L0.826009399,13.591709 C0.37007312,13.591709 0,13.9384978 0,14.3657475 L0,17.461992 C0,17.8892417 0.37007312,18.2360305 0.826009399,18.2360305 L4.1301438,18.2360305 C4.58859692,18.2360305 4.95537878,17.8830733 4.9561532,17.4534652 C4.9561532,17.4495646 4.95702441,17.4457547 4.95702441,17.4410377 C4.96941504,14.458545 7.55247314,12.0434507 10.7385094,12.0434507 C13.9319994,12.0434507 16.5207688,14.4693396 16.5207688,17.4619013 C16.4613325,17.9317852 16.8569613,18.2359398 17.3467782,18.2359398 L32.2155282,18.2359398 C32.6739813,18.2359398 33.0407632,17.8829826 33.0415376,17.4533745 C33.0415376,17.4494739 33.042312,17.445664 33.042312,17.440947 C33.0547026,14.4584543 35.6377607,12.0433599 38.823797,12.0433599 C42.017287,12.0433599 44.6060564,14.4692489 44.6060564,17.4618106 C44.5466201,17.9316945 44.9422489,18.2358491 45.4320658,18.2358491 L48.7362002,18.2358491 C49.1921365,18.2358491 49.5622096,17.8890602 49.5622096,17.4618106 L49.5622096,14.365566 C49.5625,13.9384071 49.1924269,13.5916183 48.7364906,13.5916183 Z M26.4333656,6.23802612 C26.4333656,6.45165094 26.2483774,6.62509071 26.0203125,6.62509071 L15.2479225,6.62509071 C14.86633,6.62509071 14.6928612,6.18541364 14.9744575,5.94466618 C17.8408544,3.49628084 21.4861182,2.09597242 25.9782037,1.72369376 C26.2202081,1.70355588 26.4333656,1.88624819 26.4333656,2.11384253 L26.4333656,6.23802612 Z M36.357385,6.24183599 C36.3548682,6.45391872 36.1706544,6.625 35.9443319,6.625 L28.4984375,6.625 C28.2704694,6.625 28.0853844,6.45165094 28.0853844,6.23793541 L28.0853844,2.01152032 C28.0853844,1.7970791 28.2679525,1.62064586 28.4959207,1.62064586 C30.1430026,1.61910377 31.886015,1.7313135 33.7388007,1.97133527 C34.6210519,2.11683599 35.4073726,2.316582 36.1227375,2.56195573 C36.2871069,2.6184688 36.39204,2.7678701 36.3903944,2.93196662 L36.357385,6.24183599 Z M40.6685481,6.625 L38.4225537,6.625 C38.1929399,6.625 38.0070806,6.44929245 38.0095006,6.23412554 L38.0309906,4.13642961 C38.0342819,3.81676343 38.4233281,3.64332366 38.6984387,3.83218433 C39.5914349,4.44366836 40.3340012,5.1720791 40.9956412,5.99882075 C41.2021194,6.2565312 41.0120975,6.625 40.6685481,6.625 Z" id="Shape"></path>
                        <path d="M38.8239906,13.5916183 C36.5466324,13.5916183 34.69375,15.3278302 34.69375,17.461992 C34.69375,19.5960631 36.5465356,21.3323657 38.8239906,21.3323657 C41.1013488,21.3323657 42.9542312,19.5961538 42.9542312,17.461992 C42.9541344,15.3279209 41.1013488,13.5916183 38.8239906,13.5916183 Z M38.8239906,19.7841981 C37.4577306,19.7841981 36.3458656,18.7422896 36.3458656,17.461992 C36.3458656,16.1816945 37.4577306,15.1397859 38.8239906,15.1397859 C40.1902506,15.1397859 41.3021156,16.1816945 41.3021156,17.461992 C41.3021156,18.7422896 40.1902506,19.7841981 38.8239906,19.7841981 Z" id="Shape"></path>
                    </g>
                </g>
            </g>
        </g>
    </g>
</svg>