<?xml version="1.0" encoding="UTF-8"?>
<svg width="68px" height="30px" viewBox="0 0 50 23" version="1.1" xmlns="http://www.w3.org/2000/svg" xmlns:xlink="http://www.w3.org/1999/xlink">
    <!-- Generator: sketchtool 52.2 (67145) - http://www.bohemiancoding.com/sketch -->
    <title>C556EE81-3C2A-4EBC-BC8B-C3DE4304A7D8</title>
    <desc>Created with sketchtool.</desc>
    <g id="Page-1" stroke="none" stroke-width="1" fill="none" fill-rule="evenodd">
        <g id="icon-car_calc" transform="translate(-305.000000, -794.000000)" fill="#9E9E9E" fill-rule="nonzero">
            <g id="Машины" transform="translate(20.000000, 695.000000)">
                <g id="Group-2" transform="translate(285.000000, 99.000000)">
                    <g id="van-(1)">
                        <path d="M38.0545131,15.2197267 C35.773761,15.2197267 33.9181172,16.9265919 33.9181172,19.0246807 C33.9181172,21.1226802 35.7736641,22.8296346 38.0545131,22.8296346 C40.3352653,22.8296346 42.1909091,21.1227694 42.1909091,19.0246807 C42.1909091,16.9265919 40.3353622,15.2197267 38.0545131,15.2197267 Z M38.0545131,21.307546 C36.686217,21.307546 35.572695,20.2832485 35.572695,19.0245915 C35.572695,17.7659344 36.686217,16.7416369 38.0545131,16.7416369 C39.4228093,16.7416369 40.5363313,17.7659344 40.5363313,19.0245915 C40.5363313,20.2832485 39.4228093,21.307546 38.0545131,21.307546 Z" id="Shape"></path>
                        <path d="M11.5818505,15.2197267 C9.30109837,15.2197267 7.44545455,16.9265919 7.44545455,19.0246807 C7.44545455,21.1226802 9.30100142,22.8295455 11.5818505,22.8295455 C13.8626996,22.8295455 15.7182464,21.1226802 15.7182464,19.0245915 C15.7181495,16.9265919 13.8626026,15.2197267 11.5818505,15.2197267 Z M11.5818505,21.307546 C10.2135543,21.307546 9.10003232,20.2832485 9.10003232,19.0245915 C9.10003232,17.7659344 10.2135543,16.7416369 11.5818505,16.7416369 C12.9501467,16.7416369 14.0636687,17.7659344 14.0636687,19.0245915 C14.0636687,20.2832485 12.9501467,21.307546 11.5818505,21.307546 Z" id="Shape"></path>
                        <path d="M49.3939986,14.6817164 L48.8091232,14.143706 L48.8091232,13.6978165 L48.8091232,12.9368613 L48.8091232,11.4147727 L48.8091232,10.6538176 L48.8091232,0.760955123 C48.8091232,0.340927157 48.4393711,-1.42108547e-14 47.9818828,-1.42108547e-14 L10.7546101,-1.42108547e-14 C10.4849063,-1.42108547e-14 10.2317802,0.121014426 10.0770543,0.324964311 L4.35064666,7.84961816 C3.39349858,8.58016362 2.48433878,9.44536772 1.8233608,10.6538176 L1.19873757,12.175817 C1.02917898,12.758773 0.901791903,13.3964843 0.846338778,14.1254245 L0.242365057,14.6817164 C0.0868636364,14.8240443 0,15.0180954 0,15.2197267 L0,16.7417261 C0,16.9433574 0.0868636364,17.1374085 0.242365057,17.2797365 L0.827240412,17.8177468 L0.827240412,19.0246807 C0.827240412,19.4447086 1.19699254,19.7856358 1.65448082,19.7856358 L4.96363636,19.7856358 C5.42112464,19.7856358 5.79087678,19.4447086 5.79087678,19.0246807 C5.79087678,16.0872494 8.38932102,13.6978165 11.5817536,13.6978165 C14.7741861,13.6978165 17.3726303,16.0873386 17.3726303,19.0246807 C17.3726303,19.4447086 17.7423825,19.7856358 18.1998707,19.7856358 L31.4362021,19.7856358 C31.8936903,19.7856358 32.2634425,19.4447086 32.2634425,19.0246807 C32.2634425,16.0872494 34.8618867,13.6978165 38.0543192,13.6978165 C41.2467518,13.6978165 43.845196,16.0873386 43.845196,19.0246807 C43.845196,19.4447086 44.2149482,19.7856358 44.6724364,19.7856358 L47.981495,19.7856358 C48.4389833,19.7856358 48.8087354,19.4447086 48.8087354,19.0246807 L48.8087354,17.8177468 L49.3936108,17.2797365 C49.5491122,17.1374085 49.6359759,16.9433574 49.6359759,16.7417261 L49.6359759,15.2197267 C49.6363636,15.0180063 49.5495,14.8239551 49.3939986,14.6817164 Z M18.1999677,6.84886364 C18.1999677,7.2688916 17.8302156,7.60981876 17.3727273,7.60981876 L8.27269496,7.60981876 C7.96741193,7.60981876 7.68694709,7.45536262 7.54307919,7.20798309 C7.39911435,6.96069274 7.41569212,6.660074 7.58447514,6.42723047 L10.8935337,1.86132138 C11.0473871,1.64898877 11.3055543,1.52191025 11.5818505,1.52191025 L17.3727273,1.52191025 C17.8302156,1.52191025 18.1999677,1.8628374 18.1999677,2.28286537 L18.1999677,6.84886364 Z" id="Shape"></path>
                    </g>
                </g>
            </g>
        </g>
    </g>
</svg>