<?xml version="1.0" encoding="UTF-8"?>
<svg width="15px" height="15px" viewBox="0 0 15 15" version="1.1" xmlns="http://www.w3.org/2000/svg" xmlns:xlink="http://www.w3.org/1999/xlink">
    <!-- Generator: sketchtool 52.2 (67145) - http://www.bohemiancoding.com/sketch -->
    <title>682F2E2B-0143-44FE-BDC6-B7587EA88947</title>
    <desc>Created with sketchtool.</desc>
    <g id="Page-1" stroke="none" stroke-width="1" fill="none" fill-rule="evenodd">
        <g id="Главная-2-(Моб)" transform="translate(-31.000000, -649.000000)" fill="#4F4F4F" fill-rule="nonzero">
            <g id="Дома" transform="translate(20.000000, 637.000000)">
                <g id="car-wheel" transform="translate(11.000000, 12.000000)">
                    <path d="M7.48629412,0 C3.35835294,0 0,3.35829412 0,7.48623529 C0,11.6141765 3.35835294,14.9724706 7.48629412,14.9724706 C11.6141765,14.9724706 14.9725294,11.6141765 14.9725294,7.48623529 C14.9725294,3.35829412 11.6141176,0 7.48629412,0 Z M7.48629412,12.8032941 C4.54970588,12.8032941 2.16917647,10.4228235 2.16917647,7.48623529 C2.16917647,4.54964706 4.54970588,2.16917647 7.48629412,2.16917647 C10.4227647,2.16917647 12.8033529,4.54964706 12.8033529,7.48623529 C12.8033529,10.4228235 10.4227059,12.8032941 7.48629412,12.8032941 Z" id="Shape"></path>
                    <path d="M7.48629412,2.85752941 C4.93394118,2.85752941 2.85752941,4.93394118 2.85752941,7.48623529 C2.85752941,10.0385294 4.934,12.1149412 7.48629412,12.1149412 C10.0385882,12.1149412 12.115,10.0385294 12.115,7.48623529 C12.115,4.93394118 10.0385294,2.85752941 7.48629412,2.85752941 Z M11.5222353,7.19111765 L9.27635294,7.19111765 C9.23047059,6.90729412 9.11835294,6.64552941 8.95664706,6.42176471 L10.5421765,4.83623529 C11.0987647,5.47717647 11.4571176,6.29388235 11.5222353,7.19111765 Z M7.77670588,3.44988235 C8.67341176,3.51382353 9.48982353,3.87082353 10.1311176,4.42582353 L8.54594118,6.01105882 C8.32217647,5.84941176 8.06047059,5.73735294 7.77670588,5.69147059 L7.77670588,3.44988235 Z M7.19582353,3.44988235 L7.19582353,5.69141176 C6.91205882,5.73729412 6.65029412,5.84935294 6.42652941,6.01105882 L4.84129412,4.42588235 C5.48258824,3.87088235 6.29911765,3.51382353 7.19582353,3.44988235 Z M4.43017647,4.83629412 L6.01576471,6.42182353 C5.85405882,6.64552941 5.742,6.90729412 5.69611765,7.19105882 L3.45023529,7.19105882 C3.51535294,6.29388235 3.87370588,5.47723529 4.43017647,4.83629412 Z M3.44958824,7.77194118 L5.69617647,7.77194118 C5.742,8.05570588 5.85411765,8.31747059 6.01582353,8.54123529 L4.42588235,10.1311765 C3.86988235,9.48870588 3.51258824,8.67047059 3.44958824,7.77194118 Z M7.19582353,11.5225882 C6.29670588,11.4584706 5.47835294,11.0997647 4.83623529,10.5422353 L6.42652941,8.95194118 C6.65029412,9.11364706 6.91205882,9.22570588 7.19582353,9.27158824 L7.19582353,11.5225882 Z M7.19582353,8.67405882 L7.19582353,8.67829412 C7.07047059,8.64782353 6.95282353,8.59829412 6.84564706,8.53276471 L6.84841176,8.53 C6.68076471,8.42776471 6.53994118,8.28694118 6.43770588,8.11923529 L6.435,8.12194118 C6.36947059,8.01476471 6.31994118,7.89717647 6.28947059,7.77182353 L6.29364706,7.77182353 C6.271,7.67858824 6.25770588,7.58164706 6.25770588,7.48141176 C6.25770588,7.38117647 6.27105882,7.28423529 6.29364706,7.191 L6.28947059,7.191 C6.31994118,7.06570588 6.36941176,6.94811765 6.435,6.84094118 L6.43770588,6.84364706 C6.53994118,6.676 6.68082353,6.53511765 6.84841176,6.43294118 L6.84564706,6.43017647 C6.95282353,6.36464706 7.07047059,6.31505882 7.19582353,6.28464706 L7.19582353,6.28888235 C7.28911765,6.26623529 7.386,6.25288235 7.48629412,6.25288235 C7.58658824,6.25288235 7.68347059,6.26623529 7.77676471,6.28888235 L7.77676471,6.28464706 C7.90211765,6.31511765 8.01970588,6.36458824 8.12682353,6.43011765 L8.12405882,6.43288235 C8.29176471,6.53505882 8.43258824,6.67594118 8.53482353,6.84358824 L8.53752941,6.84088235 C8.60311765,6.94805882 8.65264706,7.06570588 8.68311765,7.19105882 L8.67894118,7.19105882 C8.70158824,7.28429412 8.71488235,7.38123529 8.71488235,7.48147059 C8.71488235,7.58170588 8.70152941,7.67864706 8.67894118,7.77188235 L8.68311765,7.77188235 C8.65264706,7.89723529 8.60317647,8.01488235 8.53752941,8.12205882 L8.53482353,8.11935294 C8.43258824,8.287 8.29170588,8.42782353 8.12405882,8.53005882 L8.12682353,8.53276471 C8.01970588,8.59829412 7.90211765,8.64782353 7.77676471,8.67829412 L7.77676471,8.67405882 C7.68347059,8.69670588 7.58658824,8.71005882 7.48629412,8.71005882 C7.386,8.71005882 7.28911765,8.69676471 7.19582353,8.67405882 Z M7.77670588,11.5225882 L7.77670588,9.27158824 C8.06047059,9.22570588 8.32217647,9.11364706 8.54594118,8.952 L10.1361765,10.5422353 C9.49411765,11.0997647 8.67576471,11.4584706 7.77670588,11.5225882 Z M10.5465882,10.1311765 L8.95670588,8.54129412 C9.11841176,8.31752941 9.23047059,8.05576471 9.27641176,7.77194118 L11.5229412,7.77194118 C11.4598824,8.67047059 11.1026471,9.48870588 10.5465882,10.1311765 Z" id="Shape"></path>
                </g>
            </g>
        </g>
    </g>
</svg>