<?xml version="1.0" encoding="UTF-8"?>
<svg width="68px" height="30px" viewBox="0 0 50 23" version="1.1" xmlns="http://www.w3.org/2000/svg" xmlns:xlink="http://www.w3.org/1999/xlink">
    <!-- Generator: sketchtool 52.2 (67145) - http://www.bohemiancoding.com/sketch -->
    <title>335972B5-BF09-4D16-8ECF-77293AB0E00E</title>
    <desc>Created with sketchtool.</desc>
    <g id="Page-1" stroke="none" stroke-width="1" fill="none" fill-rule="evenodd">
        <g id="icon-car_calc" transform="translate(-211.000000, -795.000000)" fill="#9E9E9E" fill-rule="nonzero">
            <g id="Машины" transform="translate(20.000000, 695.000000)">
                <g id="Group-2" transform="translate(191.000000, 100.000000)">
                    <g id="van">
                        <path d="M38.7463737,14.4586895 C36.4735684,14.4586895 34.6243902,16.1627493 34.6243902,18.2573896 C34.6243902,20.3519409 36.4734718,22.0560897 38.7463737,22.0560897 C41.0191789,22.0560897 42.8683571,20.3520299 42.8683571,18.2573896 C42.8682605,16.1627493 41.0191789,14.4586895 38.7463737,14.4586895 Z M38.7463737,20.5365919 C37.3828451,20.5365919 36.2732029,19.5139779 36.2732029,18.2573896 C36.2732029,17.0008013 37.3828451,15.9781873 38.7463737,15.9781873 C40.1099022,15.9781873 41.2195444,17.0008013 41.2195444,18.2573896 C41.2195444,19.5139779 40.1099022,20.5365919 38.7463737,20.5365919 Z" id="Shape"></path>
                        <path d="M9.89268293,14.4586895 C7.61987767,14.4586895 5.7706995,16.1627493 5.7706995,18.2573896 C5.7706995,20.3519409 7.61978106,22.0560897 9.89268293,22.0560897 C12.1654882,22.0560897 14.0146663,20.3520299 14.0146663,18.2573896 C14.0146663,16.1627493 12.1654882,14.4586895 9.89268293,14.4586895 Z M9.89268293,20.5365919 C8.52915434,20.5365919 7.4195122,19.5139779 7.4195122,18.2573896 C7.4195122,17.0008013 8.52915434,15.9781873 9.89268293,15.9781873 C11.2562115,15.9781873 12.3658537,17.0008013 12.3658537,18.2573896 C12.3658537,19.5139779 11.2562115,20.5365919 9.89268293,20.5365919 Z" id="Shape"></path>
                        <path d="M49.2218941,13.9215634 L48.6390566,13.3844373 L48.6390566,0.783475783 C48.6390566,0.364138177 48.2705928,0.0237713675 47.8146986,0.0237713675 L21.4341785,0.0237713675 C21.2461789,0.0237713675 21.0657147,0.0822649573 20.9189668,0.19017094 L12.7971128,6.17761752 L2.16315492,9.19675926 C1.89931784,9.29549501 1.37009794,9.49537037 0.900968369,10.6599893 L0.464105945,12.1794872 C0.191284299,13.502938 0,15.431891 0,18.2573896 C0,18.6767272 0.368463796,19.017094 0.824358041,19.017094 L3.29752877,19.017094 C3.75342302,19.017094 4.12188681,18.6767272 4.12188681,18.2573896 C4.12188681,15.3247863 6.71127725,12.9392806 9.89258632,12.9392806 C13.0738954,12.9392806 15.6632858,15.3248754 15.6632858,18.2573896 C15.6632858,18.6767272 16.0317496,19.017094 16.4876439,19.017094 L32.1512195,19.017094 C32.6071138,19.017094 32.9755776,18.6767272 32.9755776,18.2573896 C32.9755776,15.3247863 35.564968,12.9392806 38.7462771,12.9392806 C41.9275861,12.9392806 44.5169766,15.3248754 44.5169766,18.2573896 C44.5169766,18.6767272 44.8854404,19.017094 45.3413346,19.017094 L48.6388634,19.017094 C49.0947576,19.017094 49.4632214,18.6767272 49.4632214,18.2573896 L49.4632214,14.4586895 C49.4634146,14.2573896 49.3768537,14.0636574 49.2218941,13.9215634 Z M27.204878,6.86137821 C27.204878,7.28071581 26.8364143,7.62108262 26.38052,7.62108262 L16.4878371,7.62108262 C16.142366,7.62108262 15.8340892,7.42280983 15.7145848,7.125 C15.5942109,6.82638889 15.6889836,6.49136396 15.9511784,6.28472222 L21.7218779,1.72631766 C21.871041,1.60781695 22.0623253,1.5431802 22.2585366,1.5431802 L26.38052,1.5431802 C26.8364143,1.5431802 27.204878,1.88354701 27.204878,2.30288462 L27.204878,6.86137821 Z" id="Shape"></path>
                    </g>
                </g>
            </g>
        </g>
    </g>
</svg>