<?xml version="1.0" encoding="UTF-8"?>
<svg width="61px" height="62px" viewBox="0 0 61 62" version="1.1" xmlns="http://www.w3.org/2000/svg" xmlns:xlink="http://www.w3.org/1999/xlink">
    <!-- Generator: sketchtool 52.2 (67145) - http://www.bohemiancoding.com/sketch -->
    <title>9FD6258D-09D2-4A93-BA40-FE4B8B52AB95</title>
    <desc>Created with sketchtool.</desc>
    <g id="Page-1" stroke="none" stroke-width="1" fill="none" fill-rule="evenodd">
        <g id="О-нас-(Моб)" transform="translate(-160.000000, -1999.000000)" fill="#4F4F4F" fill-rule="nonzero">
            <g id="Цена" transform="translate(1.000000, 1929.000000)">
                <g id="coin" transform="translate(159.000000, 70.000000)">
                    <path d="M30.4647746,0 C13.6665775,0 0,13.8906197 0,30.9641972 C0,48.0377746 13.6665775,61.9283944 30.4647746,61.9283944 C47.2629718,61.9283944 60.9295493,48.0377746 60.9295493,30.9641972 C60.9295493,13.8906197 47.2632582,0 30.4647746,0 Z M30.4647746,57.8535681 C15.8771831,57.8535681 4.00938967,45.7909296 4.00938967,30.9641972 C4.00938967,16.1374648 15.8771831,4.07511737 30.4647746,4.07511737 C45.0523662,4.07511737 56.9201596,16.1374648 56.9201596,30.9641972 C56.9201596,45.7909296 45.0523662,57.8535681 30.4647746,57.8535681 Z" id="Shape"></path>
                    <path d="M32.4694695,29.1359249 L32.4694695,17.5672488 C33.6038404,17.9954272 34.5935869,18.7810516 35.28177,19.843493 C35.8909108,20.7833897 37.134108,21.043615 38.0585587,20.4247793 C38.9832958,19.8059437 39.2393239,18.5423662 38.6301831,17.6024695 C37.1899531,15.379784 34.9707559,13.8708263 32.4694695,13.3390235 L32.4694695,10.102216 C32.4694695,8.97690141 31.571939,8.06465728 30.4647746,8.06465728 C29.3576103,8.06465728 28.4600798,8.97690141 28.4600798,10.102216 L28.4600798,13.3329108 C24.0231174,14.2730986 20.6795728,18.2780657 20.6795728,23.0625446 C20.6795728,27.8470235 24.0234038,31.8525728 28.4600798,32.7927606 L28.4600798,44.3614366 C27.3257089,43.9332582 26.3359624,43.1476338 25.6477793,42.0851925 C25.0386385,41.1452958 23.7954413,40.8847793 22.8709906,41.5039061 C21.9462535,42.1227418 21.6902254,43.3863192 22.2993662,44.326216 C23.7395962,46.5489014 25.9587934,48.0578592 28.4600798,48.589662 L28.4600798,51.8261784 C28.4600798,52.951493 29.3576103,53.8637371 30.4647746,53.8637371 C31.571939,53.8637371 32.4694695,52.951493 32.4694695,51.8261784 L32.4694695,48.5957746 C36.9064319,47.6555869 40.2499765,43.6506197 40.2499765,38.8661408 C40.2499765,34.081662 36.9064319,30.0761127 32.4694695,29.1359249 Z M24.6889624,23.0625446 C24.6889624,20.543831 26.2623615,18.3974085 28.4600798,17.5687042 L28.4600798,28.556385 C26.2623615,27.7276808 24.6889624,25.5812582 24.6889624,23.0625446 Z M32.4694695,44.3596901 L32.4694695,33.3720094 C34.6671878,34.2007136 36.2405869,36.3471362 36.2405869,38.8658498 C36.2405869,41.3845634 34.6674742,43.5309859 32.4694695,44.3596901 Z" id="Shape"></path>
                </g>
            </g>
        </g>
    </g>
</svg>