<?xml version="1.0" encoding="UTF-8"?>
<svg width="15px" height="12px" viewBox="0 0 15 12" version="1.1" xmlns="http://www.w3.org/2000/svg" xmlns:xlink="http://www.w3.org/1999/xlink">
    <!-- Generator: sketchtool 52.2 (67145) - http://www.bohemiancoding.com/sketch -->
    <title>EE080A79-FD5C-4952-A466-EBEA02FECDAD</title>
    <desc>Created with sketchtool.</desc>
    <g id="Page-1" stroke="none" stroke-width="1" fill="none" fill-rule="evenodd">
        <g id="Главная-2-(Моб)" transform="translate(-205.000000, -650.000000)" fill="#4F4F4F">
            <g id="Дома" transform="translate(194.000000, 637.000000)">
                <g id="container-(1)" transform="translate(11.000000, 13.000000)">
                    <path d="M14.5605469,3.18164063 L13.7425232,3.18164063 L8.51783754,0.942489609 C8.28343131,0.848434124 7.88459277,0.530484695 7.5,0.530484695 C7.14002372,0.530484695 6.73000004,0.848434124 6.48216246,0.942489609 L1.25747681,3.18164063 L0.439453125,3.18164063 C0.196723945,3.18164063 0,3.37836457 0,3.62109375 L0,11.5605469 C0,11.8032761 0.196723945,12 0.439453125,12 L14.5605469,12 C14.8032761,12 15,11.8032761 15,11.5605469 L15,3.62109375 C15,3.37836457 14.8032761,3.18164063 14.5605469,3.18164063 Z M7.5,1.46250914 L11.5113831,3.18164063 L3.48861694,3.18164063 L7.5,1.46250914 Z M14.1210938,11.1210938 L0.87890625,11.1210938 L0.87890625,4.06054688 L14.1210938,4.06054688 L14.1210938,11.1210938 Z" id="Shape" fill-rule="nonzero"></path>
                    <path d="M2.2265625,4.93945312 C1.98383332,4.93945312 1.78710938,5.13617707 1.78710938,5.37890625 L1.78710938,9.80273438 C1.78710938,10.0454636 1.98383332,10.2421875 2.2265625,10.2421875 C2.46929168,10.2421875 2.66601562,10.0454636 2.66601562,9.80273438 L2.66601562,5.37890625 C2.66601562,5.13617707 2.46929168,4.93945312 2.2265625,4.93945312 Z" id="Path"></path>
                    <path d="M3.984375,4.93945312 C3.74164582,4.93945312 3.54492188,5.13617707 3.54492188,5.37890625 L3.54492188,9.80273438 C3.54492188,10.0454636 3.74164582,10.2421875 3.984375,10.2421875 C4.22710418,10.2421875 4.42382812,10.0454636 4.42382812,9.80273438 L4.42382812,5.37890625 C4.42382812,5.13617707 4.22710418,4.93945312 3.984375,4.93945312 Z" id="Path"></path>
                    <path d="M5.7421875,4.93945312 C5.49945832,4.93945312 5.30273438,5.13617707 5.30273438,5.37890625 L5.30273438,9.80273438 C5.30273438,10.0454636 5.49945832,10.2421875 5.7421875,10.2421875 C5.98491668,10.2421875 6.18164062,10.0454636 6.18164062,9.80273438 L6.18164062,5.37890625 C6.18164062,5.13617707 5.98491668,4.93945312 5.7421875,4.93945312 Z" id="Path"></path>
                    <path d="M7.5,4.93945312 C7.25727082,4.93945312 7.06054688,5.13617707 7.06054688,5.37890625 L7.06054688,9.80273438 C7.06054688,10.0454636 7.25727082,10.2421875 7.5,10.2421875 C7.74272918,10.2421875 7.93945312,10.0454636 7.93945312,9.80273438 L7.93945312,5.37890625 C7.93945312,5.13617707 7.74272918,4.93945312 7.5,4.93945312 Z" id="Path"></path>
                    <path d="M9.2578125,4.93945312 C9.01508332,4.93945312 8.81835938,5.13617707 8.81835938,5.37890625 L8.81835938,9.80273438 C8.81835938,10.0454636 9.01508332,10.2421875 9.2578125,10.2421875 C9.50054168,10.2421875 9.69726562,10.0454636 9.69726562,9.80273438 L9.69726562,5.37890625 C9.69726562,5.13617707 9.50054168,4.93945312 9.2578125,4.93945312 Z" id="Path"></path>
                    <path d="M11.015625,4.93945312 C10.7728958,4.93945312 10.5761719,5.13617707 10.5761719,5.37890625 L10.5761719,9.80273438 C10.5761719,10.0454636 10.7728958,10.2421875 11.015625,10.2421875 C11.2583542,10.2421875 11.4550781,10.0454636 11.4550781,9.80273438 L11.4550781,5.37890625 C11.4550781,5.13617707 11.2583542,4.93945312 11.015625,4.93945312 Z" id="Path"></path>
                    <path d="M12.7734375,4.93945312 C12.5307083,4.93945312 12.3339844,5.13617707 12.3339844,5.37890625 L12.3339844,9.80273438 C12.3339844,10.0454636 12.5307083,10.2421875 12.7734375,10.2421875 C13.0161667,10.2421875 13.2128906,10.0454636 13.2128906,9.80273438 L13.2128906,5.37890625 C13.2128906,5.13617707 13.0161667,4.93945312 12.7734375,4.93945312 Z" id="Path"></path>
                </g>
            </g>
        </g>
    </g>
</svg>