<?xml version="1.0" encoding="UTF-8"?>
<svg width="61px" height="62px" viewBox="0 0 61 62" version="1.1" xmlns="http://www.w3.org/2000/svg" xmlns:xlink="http://www.w3.org/1999/xlink">
    <!-- Generator: sketchtool 52.2 (67145) - http://www.bohemiancoding.com/sketch -->
    <title>5ACB2B7A-54FE-4201-AF81-AB85A73CB428</title>
    <desc>Created with sketchtool.</desc>
    <g id="Page-1" stroke="none" stroke-width="1" fill="none" fill-rule="evenodd">
        <g id="О-нас-(Моб)" transform="translate(-159.000000, -2356.000000)" fill="#4F4F4F" fill-rule="nonzero">
            <g id="Клиенты" transform="translate(1.000000, 2286.000000)">
                <g id="customer" transform="translate(158.000000, 70.000000)">
                    <path d="M59.0918437,30.5868281 C57.0522754,28.8783164 53.8285684,28.731793 51.71275,31.0397187 L46.4601973,36.7707227 C45.7810957,34.5524062 43.7427187,32.9371367 41.3398906,32.9371367 L31.966502,32.9371367 C31.2552324,32.9371367 31.0170703,32.661043 29.781582,31.693625 C25.071,27.5197656 17.9957148,27.5330859 13.2994297,31.7335859 L9.85412109,34.8163906 C8.30541211,33.9832656 6.49697656,33.9626797 4.93980859,34.7534219 L0.988152344,36.7610352 C0.105320312,37.210293 -0.251982422,38.3012266 0.18871875,39.1985313 L10.9107793,60.9940742 C11.352791,61.8913789 12.4261289,62.2545391 13.3089609,61.8066133 L17.2606172,59.7977891 C19.2084473,58.8085742 20.2925078,56.7887305 20.2222148,54.7328008 L41.3397715,54.7328008 C45.2556855,54.7328008 48.9976543,52.83175 51.3469883,49.6472266 L59.9258281,38.0205313 C61.5901035,35.7669766 61.3268027,32.4624492 59.0918437,30.5868281 Z M15.66175,56.5489648 L13.3088418,57.74525 L4.18445703,39.1985313 L6.53855664,38.0022461 C7.42138867,37.5541992 8.49353516,37.9162695 8.93554687,38.8147852 L16.4611836,54.1128008 C16.9020039,55.0099844 16.544582,56.099707 15.66175,56.5489648 Z M57.0665723,35.8408438 L48.4878516,47.4675391 C46.8092793,49.7427695 44.1370742,51.1001094 41.3398906,51.1001094 L18.9749316,51.1001094 L12.2783945,37.4863867 L15.6605586,34.4604961 C19.026043,31.4514375 24.1011953,31.4514375 27.4666797,34.4604961 C29.4490605,36.2343984 30.6820469,36.5698281 31.9663828,36.5698281 L41.3397715,36.5698281 C42.3250645,36.5698281 43.1267617,37.3847891 43.1267617,38.3861133 C43.1267617,39.3874375 42.3249453,40.2023984 41.3397715,40.2023984 L32.2130039,40.2023984 C31.2265195,40.2023984 30.4260137,41.0161484 30.4260137,42.0186836 C30.4260137,43.0212188 31.2266387,43.8349688 32.2130039,43.8349688 L42.5371348,43.8349688 C44.0203164,43.8349688 45.4500039,43.2028594 46.4601973,42.0998164 L54.3277676,33.5159648 C55.047377,32.7312773 56.1505,32.796668 56.8272188,33.3985039 C57.5347949,34.0280703 57.6111641,35.1045938 57.0665723,35.8408438 Z" id="Shape"></path>
                    <path d="M37.575166,12.3960039 C38.7986211,11.0919453 39.5527813,9.32894141 39.5527813,7.38780859 C39.5527813,3.38953516 36.3743477,0.00157421875 32.4048203,0.00157421875 C28.4650781,0.00157421875 25.1377188,3.38348047 25.1377188,7.38780859 C25.1377188,9.26948438 25.8632852,11.0458086 27.1808613,12.4105352 C23.9130723,14.2728359 21.5637383,17.8472813 21.5637383,22.0393047 L21.5637383,23.8555898 C21.5637383,24.858125 22.3643633,25.671875 23.3507285,25.671875 L41.3398906,25.671875 C42.3262559,25.671875 43.1268809,24.858125 43.1268809,23.8555898 L43.1268809,22.0393047 C43.1267617,17.929625 40.9027637,14.2994766 37.575166,12.3960039 Z M32.4048203,3.63426563 C34.3419277,3.63426563 35.9788008,5.35367578 35.9788008,7.38792969 C35.9788008,9.39069922 34.3752871,11.0205 32.4048203,11.0205 C30.403377,11.0205 28.7116992,9.35679297 28.7116992,7.38792969 C28.7116992,5.38879297 30.4379277,3.63426563 32.4048203,3.63426563 Z M25.1377188,22.0393047 C25.1377188,18.0349766 28.4650781,14.6530703 32.4048203,14.6530703 C36.3457539,14.6530703 39.5527813,17.9659531 39.5527813,22.0393047 L25.1377188,22.0393047 Z" id="Shape"></path>
                </g>
            </g>
        </g>
    </g>
</svg>