<?xml version="1.0" encoding="UTF-8"?>
<svg width="80px" height="80px" viewBox="0 0 80 80" version="1.1" xmlns="http://www.w3.org/2000/svg" xmlns:xlink="http://www.w3.org/1999/xlink">
    <!-- Generator: sketchtool 52.2 (67145) - http://www.bohemiancoding.com/sketch -->
    <title>54AFC574-9F12-4464-9E53-6E00554ADF13</title>
    <desc>Created with sketchtool.</desc>
    <g id="Page-1" stroke="none" stroke-width="1" fill="none" fill-rule="evenodd">
        <g id="Главная-языки" transform="translate(-798.000000, -2967.000000)" fill="#4F4F4F">
            <g id="Вещи" transform="translate(455.000000, 2728.000000)">
                <g id="Group" transform="translate(34.000000, 224.000000)">
                    <g id="Одежда" transform="translate(266.000000, 15.000000)">
                        <g id="fashion" transform="translate(43.000000, 0.000000)">
                            <path d="M79.4625352,28.7076056 L66.5852716,15.8303421 C66.4,15.6455533 66.1628974,15.5216097 65.9053521,15.4749296 L51.7403622,12.8994769 C51.0406439,12.7721529 50.3702213,13.2362173 50.2428974,13.9359356 C50.2290543,14.0115895 50.2221328,14.0883702 50.2221328,14.1653119 C50.2184306,14.5744869 50.1817304,14.9826962 50.1126761,15.3860765 L41.2080483,13.1608853 L41.2080483,12.7488129 C44.6921529,12.037666 46.9400402,8.63661972 46.2288934,5.15251509 C45.5177465,1.66841046 42.1167002,-0.579476861 38.6325956,0.13167002 C35.6352515,0.743501006 33.482334,3.37979879 33.4816901,6.43895372 L36.0571429,6.43895372 C36.0571429,4.30535211 37.7867203,2.57577465 39.9203219,2.57577465 C42.0539235,2.57577465 43.783501,4.30535211 43.783501,6.43895372 C43.783501,8.57255533 42.0539235,10.3021328 39.9203219,10.3021328 C39.2091751,10.3021328 38.6325956,10.8787123 38.6325956,11.5898592 L38.6325956,13.1595976 L29.7279678,15.3860765 C29.6589135,14.9826962 29.6222133,14.5744869 29.6185111,14.1653119 C29.618672,13.78334 29.449336,13.421167 29.1562173,13.176338 C28.8647082,12.9281288 28.4759759,12.8262374 28.1002817,12.8994769 L13.9352918,15.4749296 C13.6777465,15.5216097 13.4406439,15.6455533 13.2553722,15.8303421 L0.378108652,28.7076056 C-0.124587525,29.2104628 -0.124587525,30.0255936 0.378108652,30.5284507 L10.6799195,40.8302616 C11.1827767,41.3329577 11.9979074,41.3329577 12.5007646,40.8302616 L15.4535211,37.877505 L15.4535211,46.3584708 L6.43943662,46.3584708 C2.89416499,46.348169 0.0119114688,49.214004 0.00160965795,52.7592757 C-0.00434607646,54.8069215 0.966921529,56.7344869 2.61617706,57.948008 C-0.228571429,60.0265594 -0.849738431,64.0177062 1.22897384,66.8624547 C1.61706237,67.3936419 2.08498994,67.8615694 2.61617706,68.2496579 C-0.239195171,70.3509054 -0.85054326,74.3692555 1.25070423,77.2246278 C2.46438632,78.8737223 4.39195171,79.8449899 6.43943662,79.8391952 L52.7975855,79.8391952 C53.1391549,79.8391952 53.4665594,79.70334 53.708008,79.4618913 L64.0098189,69.1600805 C64.2482093,68.917505 64.3798793,68.5897787 64.3755332,68.2496579 L64.3871227,68.2496579 L64.3871227,37.877505 L67.3398793,40.8302616 C67.8427364,41.3329577 68.6578672,41.3329577 69.1607243,40.8302616 L79.4625352,30.5284507 C79.9652314,30.0255936 79.9652314,29.2103018 79.4625352,28.7076056 Z M39.9203219,15.49167 L49.284668,17.8327565 C47.3437425,21.1410865 43.7543662,23.1286922 39.9203219,23.0184306 C36.0862777,23.1286922 32.4969014,21.1410865 30.5559759,17.8327565 L39.9203219,15.49167 Z M2.57625755,52.7971026 C2.57625755,50.663501 4.30583501,48.9339235 6.43943662,48.9339235 L34.7694165,48.9339235 C36.9030181,48.9339235 38.6325956,50.663501 38.6325956,52.7971026 C38.6325956,54.9307042 36.9030181,56.6602817 34.7694165,56.6602817 L6.43943662,56.6602817 C4.30583501,56.6602817 2.57625755,54.9305433 2.57625755,52.7971026 Z M2.57625755,63.0989135 C2.57625755,60.9653119 4.30583501,59.2357344 6.43943662,59.2357344 L34.7694165,59.2357344 C36.9030181,59.2357344 38.6325956,60.9653119 38.6325956,63.0989135 C38.6325956,65.2325151 36.9030181,66.9620926 34.7694165,66.9620926 L6.43943662,66.9620926 C4.30583501,66.9620926 2.57625755,65.2323541 2.57625755,63.0989135 Z M34.7694165,77.2639034 L32.1939638,77.2639034 L6.43943662,77.2639034 C4.30583501,77.2639034 2.57625755,75.534326 2.57625755,73.4007243 C2.57625755,71.2671227 4.30583501,69.5375453 6.43943662,69.5375453 L34.7694165,69.5375453 C36.9030181,69.5375453 38.6325956,71.2671227 38.6325956,73.4007243 C38.6325956,75.534326 36.9030181,77.2639034 34.7694165,77.2639034 Z M54.0853119,75.4430584 L54.0853119,69.5375453 L59.9908249,69.5375453 L54.0853119,75.4430584 Z M68.2503018,38.098994 L60.1466398,29.995332 L58.3257948,31.8161771 L61.81167,35.3020523 L61.81167,66.9620926 L52.7975855,66.9620926 C52.0864386,66.9620926 51.5098592,67.538672 51.5098592,68.2498189 L51.5098592,77.2639034 L39.886841,77.2639034 C42.0301006,74.4872435 41.5167807,70.498994 38.7402817,68.3555734 C38.6937626,68.3196781 38.6467606,68.2844266 38.5991147,68.2498189 C41.4438632,66.1712676 42.0650302,62.1801207 39.9864789,59.3352113 C39.5983903,58.8040241 39.1304628,58.3360966 38.5991147,57.948008 C41.4546479,55.8467606 42.065996,51.8284105 39.9645875,48.9730382 C38.7496177,47.3220121 36.8191549,46.3505835 34.7694165,46.3584708 L18.0289738,46.3584708 L18.0289738,35.3020523 L21.5148491,31.8161771 L19.694004,29.995332 L11.5903421,38.098994 L3.10937626,29.6180282 L14.7916298,17.9357746 L27.1538028,15.6886922 C27.9959759,21.2722736 33.3992757,25.5938833 39.9177465,25.5938833 C46.4362173,25.5938833 51.8395171,21.2722736 52.6816901,15.6886922 L65.0438632,17.9357746 L76.7312676,29.6180282 L68.2503018,38.098994 Z" id="Shape" fill-rule="nonzero"></path>
                            <rect id="Rectangle" x="5.15171026" y="51.5093763" width="30.9054326" height="2.57545272"></rect>
                            <rect id="Rectangle" x="5.15171026" y="61.8111871" width="29.6177062" height="2.57545272"></rect>
                            <rect id="Rectangle" x="5.15171026" y="72.112998" width="29.6177062" height="2.57545272"></rect>
                        </g>
                    </g>
                </g>
            </g>
        </g>
    </g>
</svg>