<?xml version="1.0" encoding="UTF-8"?>
<svg width="64px" height="80px" viewBox="0 0 64 80" version="1.1" xmlns="http://www.w3.org/2000/svg" xmlns:xlink="http://www.w3.org/1999/xlink">
    <!-- Generator: sketchtool 52.2 (67145) - http://www.bohemiancoding.com/sketch -->
    <title>97DBA239-2323-4E09-9895-B913852EEF83</title>
    <desc>Created with sketchtool.</desc>
    <g id="Page-1" stroke="none" stroke-width="1" fill="none" fill-rule="evenodd">
        <g id="Главная-языки" transform="translate(-1084.000000, -3196.000000)" fill="#4F4F4F">
            <g id="Вещи" transform="translate(455.000000, 2728.000000)">
                <g id="Group" transform="translate(0.000000, 468.000000)">
                    <g id="Документы" transform="translate(601.000000, 0.000000)">
                        <g id="file" transform="translate(28.000000, 0.000000)">
                            <path d="M51.6666667,33 L18.3333333,33 C17.5973333,33 17,33.6705 17,34.5 C17,35.3295 17.5973333,36 18.3333333,36 L51.6666667,36 C52.4026667,36 53,35.3295 53,34.5 C53,33.6705 52.4026667,33 51.6666667,33 Z" id="Path"></path>
                            <path d="M18.3333333,26 L31.6666667,26 C32.4026667,26 33,25.3295 33,24.5 C33,23.6705 32.4026667,23 31.6666667,23 L18.3333333,23 C17.5973333,23 17,23.6705 17,24.5 C17,25.3295 17.5973333,26 18.3333333,26 Z" id="Path"></path>
                            <path d="M51.6666667,44 L18.3333333,44 C17.5973333,44 17,44.6705 17,45.5 C17,46.3295 17.5973333,47 18.3333333,47 L51.6666667,47 C52.4026667,47 53,46.3295 53,45.5 C53,44.6705 52.4026667,44 51.6666667,44 Z" id="Path"></path>
                            <path d="M51.6666667,55 L18.3333333,55 C17.5973333,55 17,55.6705 17,56.5 C17,57.3295 17.5973333,58 18.3333333,58 L51.6666667,58 C52.4026667,58 53,57.3295 53,56.5 C53,55.6705 52.4026667,55 51.6666667,55 Z" id="Path"></path>
                            <path d="M51.6666667,65 L18.3333333,65 C17.5973333,65 17,65.6705 17,66.5 C17,67.3295 17.5973333,68 18.3333333,68 L51.6666667,68 C52.4026667,68 53,67.3295 53,66.5 C53,65.6705 52.4026667,65 51.6666667,65 Z" id="Path"></path>
                            <path d="M57.3333333,19.448 L57.3333333,0 L0,0 L0,73.3333333 L6.66666667,73.3333333 L6.66666667,80 L64,80 L64,26.1146667 L57.3333333,19.448 Z M45.3333333,11.2186667 L57.3333333,23.2186667 L59.448,25.3333333 L45.3333333,25.3333333 L45.3333333,11.2186667 Z M2.66666667,70.6666667 L2.66666667,2.66666667 L54.6666667,2.66666667 L54.6666667,16.7813333 L44.552,6.66666667 L6.66666667,6.66666667 L6.66666667,70.6666667 L2.66666667,70.6666667 Z M9.33333333,77.3333333 L9.33333333,73.3333333 L9.33333333,9.33333333 L42.6666667,9.33333333 L42.6666667,28 L61.3333333,28 L61.3333333,77.3333333 L9.33333333,77.3333333 Z" id="Shape" fill-rule="nonzero"></path>
                        </g>
                    </g>
                </g>
            </g>
        </g>
    </g>
</svg>