<?xml version="1.0" encoding="UTF-8"?>
<svg width="61px" height="62px" viewBox="0 0 61 62" version="1.1" xmlns="http://www.w3.org/2000/svg" xmlns:xlink="http://www.w3.org/1999/xlink">
    <!-- Generator: sketchtool 52.2 (67145) - http://www.bohemiancoding.com/sketch -->
    <title>2950A7DF-120E-4146-A5CE-6DB44A1802CB</title>
    <desc>Created with sketchtool.</desc>
    <g id="Page-1" stroke="none" stroke-width="1" fill="none" fill-rule="evenodd">
        <g id="О-нас-(Моб)" transform="translate(-159.000000, -918.000000)" fill="#4F4F4F">
            <g id="Размер" transform="translate(1.000000, 858.000000)">
                <g id="full-size" transform="translate(158.000000, 60.000000)">
                    <path d="M2.11805556,18.6826667 C3.28806944,18.6826667 4.23611111,17.7187963 4.23611111,16.5298889 L4.23611111,7.35101852 L17.8778009,21.2134722 C18.2915278,21.6336944 18.8334676,21.8438056 19.3754074,21.8438056 C19.9176296,21.8438056 20.4598519,21.6336944 20.8732963,21.2131852 C21.7004676,20.3724537 21.7004676,19.0093148 20.8730139,18.1688704 L7.23075926,4.30612963 L16.2635602,4.30612963 C17.4332917,4.30612963 18.3816157,3.34225926 18.3816157,2.15335185 C18.3816157,0.964444444 17.4335741,0.000574074074 16.2635602,0.000574074074 L2.11805556,0.000574074074 C0.948041667,0.000574074074 0,0.964444444 0,2.15335185 L0,16.5301759 C0,17.7187963 0.948041667,18.6826667 2.11805556,18.6826667 Z" id="Path"></path>
                    <path d="M58.6983796,43.1307593 C57.5283657,43.1307593 56.5803241,44.0946296 56.5803241,45.283537 L56.5803241,54.4626944 L42.5186944,40.1705463 C41.6912407,39.3298148 40.3503704,39.3298148 39.5231991,40.1705463 C38.6960278,41.0112778 38.6960278,42.3744167 39.5231991,43.2148611 L53.5845463,57.5067222 L44.5540046,57.5067222 C43.3839907,57.5067222 42.4359491,58.4705926 42.4359491,59.6595 C42.4359491,60.8484074 43.3839907,61.8122778 44.5540046,61.8122778 L58.698662,61.8122778 C59.8686759,61.8122778 60.8167176,60.8484074 60.8167176,59.6595 L60.8167176,45.283537 C60.8164352,44.0946296 59.8681111,43.1307593 58.6983796,43.1307593 Z" id="Path"></path>
                    <path d="M18.2977407,40.1705463 L4.23752315,54.4624074 L4.23752315,45.283537 C4.23752315,44.0946296 3.28948148,43.1307593 2.11946759,43.1307593 C0.949453704,43.1307593 0.00141203704,44.0946296 0.00141203704,45.283537 L0.00141203704,59.6600741 C0.00141203704,60.8489815 0.949453704,61.8128519 2.11946759,61.8128519 L16.2635602,61.8128519 C17.4332917,61.8128519 18.3816157,60.8489815 18.3816157,59.6600741 C18.3816157,58.4711667 17.4335741,57.5072963 16.2635602,57.5072963 L7.23273611,57.5072963 L21.2932361,43.2148611 C22.1204074,42.3741296 22.1204074,41.0109907 21.2929537,40.1702593 C20.4663472,39.3298148 19.1251944,39.3298148 18.2977407,40.1705463 Z" id="Path"></path>
                    <path d="M58.6983796,0.000574074074 L44.5537222,0.000574074074 C43.3837083,0.000574074074 42.4356667,0.964444444 42.4356667,2.15335185 C42.4356667,3.34225926 43.3837083,4.30612963 44.5537222,4.30612963 L53.5848287,4.30612963 L39.9451157,18.1703056 C39.1179444,19.011037 39.1179444,20.3741759 39.9453981,21.2149074 C40.3588426,21.6351296 40.9010648,21.8452407 41.4430046,21.8452407 C41.9849444,21.8452407 42.5271667,21.6348426 42.9408935,21.2146204 L56.5806065,7.35044444 L56.5806065,16.5298889 C56.5806065,17.7187963 57.5286481,18.6826667 58.698662,18.6826667 C59.8686759,18.6826667 60.8167176,17.7187963 60.8167176,16.5298889 L60.8167176,2.15335185 C60.8164352,0.964157407 59.8681111,0.000574074074 58.6983796,0.000574074074 Z" id="Path"></path>
                </g>
            </g>
        </g>
    </g>
</svg>