<?xml version="1.0" encoding="UTF-8"?>
<svg width="15px" height="15px" viewBox="0 0 15 15" version="1.1" xmlns="http://www.w3.org/2000/svg" xmlns:xlink="http://www.w3.org/1999/xlink">
    <!-- Generator: sketchtool 52.2 (67145) - http://www.bohemiancoding.com/sketch -->
    <title>3F68B620-26C0-4F05-92B7-6565245D9934</title>
    <desc>Created with sketchtool.</desc>
    <g id="Page-1" stroke="none" stroke-width="1" fill="none" fill-rule="evenodd">
        <g id="Главная-2-(Моб)" transform="translate(-31.000000, -511.000000)">
            <rect fill="#FFFFFF" x="0" y="0" width="375" height="1585"></rect>
            <g id="Дома" transform="translate(20.000000, 499.000000)">
                <rect id="Rectangle" stroke="#E3E3E3" fill="#FFFFFF" x="0.5" y="0.5" width="160" height="117" rx="3"></rect>
                <g id="house" transform="translate(11.000000, 12.000000)" fill="#4F4F4F">
                    <path d="M14.9960156,6.48887695 C14.9690332,6.13766602 14.8069043,5.8180957 14.539541,5.58899414 L13.2420996,4.47688477 L13.2420996,1.31671875 C13.2420996,1.07402344 13.0453418,0.877294922 12.8026758,0.877294922 L11.0449219,0.877294922 C10.8022266,0.877294922 10.6113574,1.07405273 10.6113574,1.31671875 L10.6113574,2.21695312 L8.38740234,0.321591797 C7.89023437,-0.104355469 7.16856445,-0.104296875 6.67297852,0.320332031 L0.46078125,5.58893555 C-0.0886230469,6.05967773 -0.159902344,6.89039062 0.318222656,7.44849609 C0.682646484,7.87227539 1.26638672,8.00739258 1.76402344,7.83249023 L1.76402344,14.558584 C1.76402344,14.8012793 1.95492187,14.9980078 2.19758789,14.9980078 L12.8026465,14.9980078 C13.0453418,14.9980078 13.2420703,14.80125 13.2420703,14.558584 L13.2420703,7.83257812 C13.7557617,8.01421875 14.3271973,7.86199219 14.6825098,7.44791016 C14.9116113,7.18048828 15.0229687,6.83988281 14.9960156,6.48887695 Z M11.4843457,1.75614258 L12.369082,1.75614258 L12.369082,3.72354492 L11.4843457,2.97023437 L11.4843457,1.75614258 Z M9.29302734,14.1191602 L5.7130957,14.1191602 L5.7130957,10.597793 L9.29302734,10.597793 L9.29302734,14.1191602 Z M12.3691113,14.1191602 L10.1660449,14.1191602 L10.1660449,10.1642285 C10.1660449,9.9215332 9.96928711,9.72480469 9.72662109,9.72480469 L5.27364258,9.72480469 C5.03094727,9.72480469 4.84007812,9.9215625 4.84007812,10.1642285 L4.84007812,14.1191602 L2.63704102,14.1191602 L2.63704102,7.20043945 L7.52794922,3.05162109 L12.3691113,7.19633789 L12.3691113,14.1191602 Z M14.0153027,6.87580078 C13.859502,7.05738281 13.5825293,7.08401367 13.3954395,6.92358398 L7.81538086,2.14045898 C7.65146484,1.99992188 7.40976562,1.99933594 7.24514648,2.13899414 C7.12623047,2.23983398 1.62832031,6.90360352 1.60505859,6.92334961 C1.42101562,7.08082031 1.14269531,7.0593457 0.985107422,6.87603516 C0.82734375,6.6919043 0.848671875,6.41390625 1.03107422,6.25757812 L7.24330078,0.988945312 C7.40912109,0.846914063 7.64976562,0.846884766 7.81546875,0.988886719 L13.9676367,6.25631836 C14.1515625,6.41393555 14.1728613,6.69196289 14.0153027,6.87580078 Z" id="Shape" fill-rule="nonzero"></path>
                    <path d="M8.84771484,5.27162109 L6.15251953,5.27162109 C5.90982422,5.27162109 5.71895508,5.46837891 5.71895508,5.71104492 L5.71895508,8.34764648 C5.71895508,8.5903418 5.90985352,8.78707031 6.15251953,8.78707031 L8.84771484,8.78707031 C9.09041016,8.78707031 9.28713867,8.5903125 9.28713867,8.34764648 L9.28713867,5.71104492 C9.28716797,5.46834961 9.09041016,5.27162109 8.84771484,5.27162109 Z M8.41415039,7.90825195 L6.59194336,7.90825195 L6.59194336,6.15049805 L8.41415039,6.15049805 L8.41415039,7.90825195 Z" id="Shape" fill-rule="nonzero"></path>
                    <circle id="Oval" cx="7.9687207" cy="11.9218945" r="1"></circle>
                </g>
            </g>
        </g>
    </g>
</svg>