<?xml version="1.0" encoding="UTF-8"?>
<svg width="15px" height="15px" viewBox="0 0 15 15" version="1.1" xmlns="http://www.w3.org/2000/svg" xmlns:xlink="http://www.w3.org/1999/xlink">
    <!-- Generator: sketchtool 52.2 (67145) - http://www.bohemiancoding.com/sketch -->
    <title>80711C86-8421-492F-85D7-FBD3563CD509</title>
    <desc>Created with sketchtool.</desc>
    <g id="Page-1" stroke="none" stroke-width="1" fill="none" fill-rule="evenodd">
        <g id="Главная---Меню-(Моб)" transform="translate(-340.000000, -20.000000)" fill="#FFFFFF">
            <g id="Group">
                <g id="cancel-music-(1)" transform="translate(340.000000, 20.000000)">
                    <path d="M9.28195423,7.49940141 L14.6295599,2.15179577 C15.1218134,1.65954225 15.1218134,0.861443662 14.6295599,0.369260563 C14.1373063,-0.122992958 13.3392782,-0.122992958 12.8470246,0.369260563 L7.49934859,5.71693662 L2.15167254,0.369190141 C1.65941901,-0.12306338 0.861390845,-0.12306338 0.369137324,0.369190141 C-0.123045775,0.861443662 -0.123045775,1.65954225 0.369137324,2.15172535 L5.71681338,7.49933099 L0.369137324,12.847007 C-0.123045775,13.3392606 -0.123045775,14.1373592 0.369137324,14.6295423 C0.861390845,15.1217958 1.65941901,15.1217958 2.15167254,14.6295423 L7.49934859,9.2818662 L12.8470246,14.6295423 C13.3392077,15.1217958 14.1373063,15.1217958 14.6295599,14.6295423 C15.1218134,14.1372887 15.1218134,13.3392606 14.6295599,12.847007 L9.28195423,7.49940141 Z" id="Path"></path>
                </g>
            </g>
        </g>
    </g>
</svg>