<?xml version="1.0" encoding="UTF-8"?>
<svg width="80px" height="80px" viewBox="0 0 80 80" version="1.1" xmlns="http://www.w3.org/2000/svg" xmlns:xlink="http://www.w3.org/1999/xlink">
    <!-- Generator: sketchtool 52.2 (67145) - http://www.bohemiancoding.com/sketch -->
    <title>855DEF74-FD7E-4DE9-BF58-6F386D8069E3</title>
    <desc>Created with sketchtool.</desc>
    <g id="Page-1" stroke="none" stroke-width="1" fill="none" fill-rule="evenodd">
        <g id="Главная-языки" transform="translate(-493.000000, -2967.000000)" fill="#4F4F4F">
            <g id="Вещи" transform="translate(455.000000, 2728.000000)">
                <g id="Group" transform="translate(34.000000, 224.000000)">
                    <g id="Кухни" transform="translate(0.000000, 15.000000)">
                        <g id="kitchen" transform="translate(4.000000, 0.000000)">
                            <g id="SVGCleanerId_0" transform="translate(21.250000, 47.968750)" fill-rule="nonzero">
                                <path d="M36.0832813,0.03125 L1.41671875,0.03125 C0.68078125,0.03125 0.0834375,0.6271875 0.0834375,1.36453125 L0.0834375,30.6978125 C0.0834375,31.4351562 0.68078125,32.0310937 1.41671875,32.0310937 L36.0834375,32.0310937 C36.8207812,32.0310937 37.4167188,31.4351562 37.4167188,30.6978125 L37.4167188,1.36453125 C37.4167188,0.6271875 36.820625,0.03125 36.0832813,0.03125 Z M34.75,29.3645312 L2.75,29.3645312 L2.75,2.69796875 L34.75,2.69796875 L34.75,29.3645312 Z" id="Shape"></path>
                            </g>
                            <path d="M57.3332812,48 L22.6667187,48 C21.9307812,48 21.3334375,48.5959375 21.3334375,49.3332813 L21.3334375,78.6665625 C21.3334375,79.4039063 21.9307812,79.9998438 22.6667187,79.9998438 L57.3334375,79.9998438 C58.0707812,79.9998438 58.6667188,79.4039063 58.6667188,78.6665625 L58.6667188,49.3332813 C58.6667188,48.5959375 58.070625,48 57.3332812,48 Z M56,77.3332812 L24,77.3332812 L24,50.6667188 L56,50.6667188 L56,77.3332812 Z" id="Shape" fill-rule="nonzero"></path>
                            <path d="M22.6667188,48 L1.33328125,48 C0.59734375,48 0,48.5959375 0,49.3332813 L0,78.6665625 C0,79.4040625 0.59734375,80 1.33328125,80 L22.6665625,80 C23.4025,80 23.9998437,79.4040625 23.9998437,78.6667188 L23.9998437,49.3332813 C24,48.5959375 23.4026562,48 22.6667188,48 Z M21.3334375,77.3332812 L2.66671875,77.3332812 L2.66671875,50.6667188 L21.3334375,50.6667188 L21.3334375,77.3332812 Z" id="Shape" fill-rule="nonzero"></path>
                            <path d="M78.6667188,48 L57.3332813,48 C56.5959375,48 56,48.5959375 56,49.3332813 L56,78.6665625 C56,79.4039063 56.5959375,79.9998438 57.3332813,79.9998438 L78.6665625,79.9998438 C79.4039063,79.9998438 79.9998438,79.4039063 79.9998438,78.6665625 L79.9998438,49.3332813 C80,48.5959375 79.4040625,48 78.6667188,48 Z M77.3334375,77.3332812 L58.6667188,77.3332812 L58.6667188,50.6667188 L77.3334375,50.6667188 L77.3334375,77.3332812 Z" id="Shape" fill-rule="nonzero"></path>
                            <path d="M52,58.6667188 L28,58.6667188 C27.2640625,58.6667188 26.6667188,59.2626563 26.6667188,60 L26.6667188,73.3332812 C26.6667188,74.070625 27.2640625,74.6665625 28,74.6665625 L52,74.6665625 C52.7373437,74.6665625 53.3332812,74.070625 53.3332812,73.3332812 L53.3332812,60 C53.3332812,59.2626563 52.7373437,58.6667188 52,58.6667188 Z M50.6667188,72 L29.3332812,72 L29.3332812,61.3332813 L50.6667188,61.3332813 L50.6667188,72 Z" id="Shape" fill-rule="nonzero"></path>
                            <rect id="Rectangle" x="41.3332812" y="53.3332813" width="2.66671875" height="2.66671875"></rect>
                            <rect id="Rectangle" x="36" y="53.3332813" width="2.66671875" height="2.66671875"></rect>
                            <rect id="Rectangle" x="30.6667188" y="53.3332813" width="2.66671875" height="2.66671875"></rect>
                            <rect id="Rectangle" x="46.6667187" y="53.3332813" width="2.66671875" height="2.66671875"></rect>
                            <rect id="Rectangle" x="1.33328125" y="58.6667188" width="21.3332812" height="2.66671875"></rect>
                            <rect id="Rectangle" x="9.33328125" y="53.3332813" width="5.33328125" height="2.66671875"></rect>
                            <rect id="Rectangle" x="9.33328125" y="64" width="5.33328125" height="2.66671875"></rect>
                            <rect id="Rectangle" x="57.3332812" y="58.6667188" width="21.3332812" height="2.66671875"></rect>
                            <rect id="Rectangle" x="66.6667188" y="60" width="2.66671875" height="18.6667188"></rect>
                            <rect id="Rectangle" x="65.3332812" y="53.3332813" width="5.33328125" height="2.66671875"></rect>
                            <rect id="Rectangle" x="61.3332812" y="66.6667188" width="2.66671875" height="4"></rect>
                            <rect id="Rectangle" x="72" y="66.6667188" width="2.66671875" height="4"></rect>
                            <path d="M56.9426562,21.7240625 L52,16.7814062 L52,1.33328125 C52,0.59734375 51.4040625,0 50.6667188,0 L29.3332812,0 C28.5973438,0 28,0.59734375 28,1.33328125 L28,16.78125 L23.0573437,21.7239063 C22.6759375,22.1051563 22.5614062,22.6785938 22.7679687,23.1771875 C22.9746875,23.6745313 23.46125,23.9998438 24,23.9998438 L56,23.9998438 C56.5385937,23.9998438 57.0267188,23.6745313 57.2320312,23.1771875 C57.4385938,22.6785938 57.3240625,22.1053125 56.9426562,21.7240625 Z M27.2185938,21.3334375 L30.2759375,18.2759375 C30.5265625,18.0265625 30.6665625,17.6865625 30.6665625,17.3332812 L30.6665625,2.66671875 L49.3332813,2.66671875 L49.3332813,17.3334375 C49.3332813,17.6867187 49.4732813,18.0267188 49.7239063,18.2760938 L52.78125,21.3334375 L27.2185938,21.3334375 Z" id="Shape" fill-rule="nonzero"></path>
                            <path d="M72,29.3332812 C69.0585938,29.3332812 66.6667188,31.7253125 66.6667188,34.6665625 L66.6667188,35.9998437 L69.3334375,35.9998437 L69.3334375,34.6665625 C69.3334375,33.1959375 70.529375,31.9998438 72.0001563,31.9998438 C73.4707813,31.9998438 74.666875,33.1957812 74.666875,34.6665625 L74.666875,49.3332812 L77.3335938,49.3332812 L77.3335938,34.6665625 C77.3332812,31.7253125 74.9414062,29.3332812 72,29.3332812 Z" id="Path"></path>
                            <rect id="Rectangle" x="72" y="42.6667188" width="4" height="2.66671875"></rect>
                            <path d="M38.6667187,40 L25.3334375,40 C24.5975,40 24.0001562,40.5959375 24.0001562,41.3332812 L24.0001562,49.3332812 C24.0001562,50.070625 24.5975,50.6665625 25.3334375,50.6665625 L38.6667187,50.6665625 C39.4026562,50.6665625 40,50.070625 40,49.3332812 L40,41.3332812 C40,40.5959375 39.4026562,40 38.6667187,40 Z M37.3332812,48 L26.6665625,48 L26.6665625,42.6667188 L37.3332812,42.6667188 L37.3332812,48 Z" id="Shape" fill-rule="nonzero"></path>
                            <rect id="Rectangle" x="21.3332812" y="42.6667188" width="4" height="2.66671875"></rect>
                            <rect id="Rectangle" x="38.6667188" y="42.6667188" width="4" height="2.66671875"></rect>
                            <path d="M22.6667188,0 L1.33328125,0 C0.59734375,0 0,0.59734375 0,1.33328125 L0,17.3332813 C0,18.0692188 0.59734375,18.6665625 1.33328125,18.6665625 L22.6665625,18.6665625 C23.4025,18.6665625 23.9998437,18.0692188 23.9998437,17.3332813 L23.9998437,1.33328125 C24,0.59734375 23.4026562,0 22.6667188,0 Z M21.3334375,16 L2.66671875,16 L2.66671875,2.66671875 L21.3334375,2.66671875 L21.3334375,16 Z" id="Shape" fill-rule="nonzero"></path>
                            <rect id="Rectangle" x="16" y="8" width="2.66671875" height="5.33328125"></rect>
                            <path d="M78.6667188,0 L57.3332813,0 C56.5959375,0 56,0.59734375 56,1.33328125 L56,17.3332813 C56,18.0692188 56.5959375,18.6665625 57.3332813,18.6665625 L78.6665625,18.6665625 C79.4039063,18.6665625 79.9998438,18.0692188 79.9998438,17.3332813 L79.9998438,1.33328125 C80,0.59734375 79.4040625,0 78.6667188,0 Z M77.3334375,16 L58.6667188,16 L58.6667188,2.66671875 L77.3334375,2.66671875 L77.3334375,16 Z" id="Shape" fill-rule="nonzero"></path>
                            <rect id="Rectangle" x="61.3332812" y="8" width="2.66671875" height="5.33328125"></rect>
                            <rect id="Rectangle" x="0" y="26.6667188" width="24" height="2.66671875"></rect>
                            <rect id="Rectangle" x="2.66671875" y="24" width="2.66671875" height="12"></rect>
                            <path d="M4,34.6667187 C1.7946875,34.6667187 0,36.4614062 0,38.6667187 C0,40.8720312 1.7946875,42.6667187 4,42.6667187 C6.2053125,42.6667187 8,40.8720312 8,38.6667187 C8,36.4614062 6.2053125,34.6667187 4,34.6667187 Z M4,40 C3.2653125,40 2.66671875,39.4014062 2.66671875,38.6667187 C2.66671875,37.9320312 3.2653125,37.3334375 4,37.3334375 C4.7346875,37.3334375 5.33328125,37.9320312 5.33328125,38.6667187 C5.33328125,39.4014062 4.7346875,40 4,40 Z" id="Shape" fill-rule="nonzero"></path>
                            <rect id="Rectangle" x="8" y="24" width="2.66671875" height="12"></rect>
                            <path d="M9.33328125,34.6667187 C7.12796875,34.6667187 5.33328125,36.4614062 5.33328125,38.6667187 C5.33328125,40.8720312 7.12796875,42.6667187 9.33328125,42.6667187 C11.5385937,42.6667187 13.3332812,40.8720312 13.3332812,38.6667187 C13.3332812,36.4614062 11.5385937,34.6667187 9.33328125,34.6667187 Z M9.33328125,40 C8.59859375,40 8,39.4014062 8,38.6667187 C8,37.9320312 8.59859375,37.3334375 9.33328125,37.3334375 C10.0679688,37.3334375 10.6665625,37.9320312 10.6665625,38.6667187 C10.6667187,39.4014062 10.0679688,40 9.33328125,40 Z" id="Shape" fill-rule="nonzero"></path>
                            <rect id="Rectangle" x="13.3332813" y="24" width="2.66671875" height="12"></rect>
                            <path d="M14.6667188,34.6667187 C12.4614062,34.6667187 10.6667187,36.4614062 10.6667187,38.6667187 C10.6667187,40.8720312 12.4614062,42.6667187 14.6667187,42.6667187 C16.8720312,42.6667187 18.6667187,40.8720312 18.6667187,38.6667187 C18.6667187,36.4614062 16.8720312,34.6667187 14.6667188,34.6667187 Z M14.6667188,40 C13.9320313,40 13.3334375,39.4014062 13.3334375,38.6667187 C13.3334375,37.9320312 13.9320313,37.3334375 14.6667188,37.3334375 C15.4014063,37.3334375 16,37.9320312 16,38.6667187 C16,39.4014062 15.4014063,40 14.6667188,40 Z" id="Shape" fill-rule="nonzero"></path>
                        </g>
                    </g>
                </g>
            </g>
        </g>
    </g>
</svg>