<?xml version="1.0" encoding="UTF-8"?>
<svg width="20px" height="28px" viewBox="0 0 20 28" version="1.1" xmlns="http://www.w3.org/2000/svg" xmlns:xlink="http://www.w3.org/1999/xlink">
    <!-- Generator: sketchtool 52.2 (67145) - http://www.bohemiancoding.com/sketch -->
    <title>7844DDC7-26EF-4810-9821-D6BA5EA1AF22</title>
    <desc>Created with sketchtool.</desc>
    <g id="Page-1" stroke="none" stroke-width="1" fill="none" fill-rule="evenodd">
        <g id="Поп-ап-склада-(Моб)" transform="translate(-41.000000, -312.000000)" fill="#3D7EBA" fill-rule="nonzero">
            <g id="Group">
                <g id="Попап" transform="translate(20.000000, 33.000000)">
                    <g id="Адрес-1" transform="translate(21.000000, 279.000000)">
                        <g id="maps-and-flags">
                            <path d="M9.96919355,0 C4.47215054,0 0,4.47215054 0,9.96913978 C0,16.7910753 8.92145161,26.8060753 9.30129032,27.229086 C9.65806452,27.6264516 10.2809677,27.6257527 10.6370968,27.229086 C11.0169355,26.8060753 19.9383871,16.7910753 19.9383871,9.96913978 C19.9382796,4.47215054 15.4661828,0 9.96919355,0 Z M9.96919355,14.9848925 C7.20349462,14.9848925 4.95349462,12.7348387 4.95349462,9.96913978 C4.95349462,7.20344086 7.20354839,4.95344086 9.96919355,4.95344086 C12.7348387,4.95344086 14.9848387,7.20349462 14.9848387,9.96919355 C14.9848387,12.7348925 12.7348387,14.9848925 9.96919355,14.9848925 Z" id="Shape"></path>
                        </g>
                    </g>
                </g>
            </g>
        </g>
    </g>
</svg>