<?xml version="1.0" encoding="UTF-8"?>
<svg width="25px" height="19px" viewBox="0 0 25 19" version="1.1" xmlns="http://www.w3.org/2000/svg" xmlns:xlink="http://www.w3.org/1999/xlink">
    <!-- Generator: sketchtool 52.2 (67145) - http://www.bohemiancoding.com/sketch -->
    <title>B6A84ED7-3B1B-4AC7-8313-81A317FE3244</title>
    <desc>Created with sketchtool.</desc>
    <g id="Page-1" stroke="none" stroke-width="1" fill="none" fill-rule="evenodd">
        <g id="Контакты-(Моб)" transform="translate(-21.000000, -210.000000)" fill="#3D7EBA">
            <g id="Group-2" transform="translate(20.000000, 209.000000)">
                <g id="Group" transform="translate(1.000000, 0.000000)">
                    <g id="metro-logo" transform="translate(0.000000, 1.000000)">
                        <path d="M12.4273438,0.185416667 C5.5640625,0.185416667 0,5.80234375 0,12.73125 C0,16.4882813 1.62135417,18.9385417 1.62135417,18.9385417 L23.228125,18.9395833 C23.228125,18.9395833 24.8541667,16.2617188 24.8541667,12.7309896 C24.8541667,5.80234375 19.2901042,0.185416667 12.4273438,0.185416667 Z M22.3166667,17.4111979 L2.57734375,17.4026042 C2.57734375,17.4026042 1.52552083,15.4106771 1.52552083,12.6916667 C1.52552083,6.61875 6.425,1.6953125 12.4690104,1.6953125 C18.5127604,1.6953125 23.4125,6.61848958 23.4125,12.6916667 C23.4127604,15.4414062 22.3166667,17.4111979 22.3166667,17.4111979 Z" id="Shape" fill-rule="nonzero"></path>
                        <polygon id="Path" points="15.9393229 3.51692708 15.7833333 3.51666667 12.4684896 10.0122396 9.034375 3.46119792 4.33255208 15.2958333 3.11744792 15.2958333 3.11744792 16.2463542 9.77421875 16.2463542 9.77421875 15.2958333 8.45338542 15.2958333 9.77421875 11.5971354 12.4684896 16.2463542 15.0572917 11.5971354 16.3778646 15.2958333 15.0572917 15.2958333 15.0572917 16.2463542 21.6609375 16.2463542 21.6609375 15.2958333 20.5169271 15.2958333"></polygon>
                    </g>
                </g>
            </g>
        </g>
    </g>
</svg>