<?xml version="1.0" encoding="UTF-8"?>
<svg width="20px" height="16px" viewBox="0 0 20 16" version="1.1" xmlns="http://www.w3.org/2000/svg" xmlns:xlink="http://www.w3.org/1999/xlink">
    <!-- Generator: sketchtool 52.2 (67145) - http://www.bohemiancoding.com/sketch -->
    <title>74EB926E-2C68-4AC5-B537-C5C3E1C58F23</title>
    <desc>Created with sketchtool.</desc>
    <g id="Page-1" stroke="none" stroke-width="1" fill="none" fill-rule="evenodd">
        <g id="Калькулятор-(Моб)" transform="translate(-125.000000, -1135.000000)" fill="#FFFFFF">
            <g id="Футер" transform="translate(0.000000, 1105.000000)">
                <g id="Адрес-1" transform="translate(125.000000, 29.000000)">
                    <g id="metro-logo" transform="translate(0.000000, 1.000000)">
                        <path d="M9.941875,0.148333333 C4.45125,0.148333333 0,4.641875 0,10.185 C0,13.190625 1.29708333,15.1508333 1.29708333,15.1508333 L18.5825,15.1516667 C18.5825,15.1516667 19.8833333,13.009375 19.8833333,10.1847917 C19.8833333,4.641875 15.4320833,0.148333333 9.941875,0.148333333 Z M17.8533333,13.9289583 L2.061875,13.9220833 C2.061875,13.9220833 1.22041667,12.3285417 1.22041667,10.1533333 C1.22041667,5.295 5.14,1.35625 9.97520833,1.35625 C14.8102083,1.35625 18.73,5.29479167 18.73,10.1533333 C18.7302083,12.353125 17.8533333,13.9289583 17.8533333,13.9289583 Z" id="Shape" fill-rule="nonzero"></path>
                        <polygon id="Path" points="12.7514583 2.81354167 12.6266667 2.81333333 9.97479167 8.00979167 7.2275 2.76895833 3.46604167 12.2366667 2.49395833 12.2366667 2.49395833 12.9970833 7.819375 12.9970833 7.819375 12.2366667 6.76270833 12.2366667 7.819375 9.27770833 9.97479167 12.9970833 12.0458333 9.27770833 13.1022917 12.2366667 12.0458333 12.2366667 12.0458333 12.9970833 17.32875 12.9970833 17.32875 12.2366667 16.4135417 12.2366667"></polygon>
                    </g>
                </g>
            </g>
        </g>
    </g>
</svg>