<?xml version="1.0" encoding="UTF-8"?>
<svg width="17px" height="20px" viewBox="0 0 17 8" version="1.1" xmlns="http://www.w3.org/2000/svg" xmlns:xlink="http://www.w3.org/1999/xlink">
    <!-- Generator: sketchtool 52.2 (67145) - http://www.bohemiancoding.com/sketch -->
    <title>2873B315-6E34-434F-8D0F-ADCC0F80AB8B</title>
    <desc>Created with sketchtool.</desc>
    <g id="Page-1" stroke="none" stroke-width="1" fill="none" fill-rule="evenodd">
        <g id="О-нас-(Моб)" transform="translate(-163.000000, -354.000000)" fill="#3D7EBA">
            <g id="arrow-point-to-right-(3)" transform="translate(171.000000, 358.500000) rotate(-90.000000) translate(-171.000000, -358.500000) translate(167.000000, 351.000000)">
                <path d="M7.7035969,7.69897674 L1.6791938,13.7231938 C1.29596899,14.1066047 0.674635659,14.1066047 0.291596899,13.7231938 C-0.0914728682,13.340124 -0.0914728682,12.7188217 0.291596899,12.3357829 L5.62226357,7.00527132 L0.291751938,1.67494574 C-0.0913178295,1.29172093 -0.0913178295,0.67048062 0.291751938,0.287410853 C0.674821705,-0.0958139535 1.29612403,-0.0958139535 1.67934884,0.287410853 L7.70375194,6.31172093 C7.89528682,6.50334884 7.99094574,6.75423256 7.99094574,7.00524031 C7.99094574,7.25637209 7.89510078,7.50744186 7.7035969,7.69897674 Z" id="Path" transform="translate(3.997620, 7.005372) rotate(-180.000000) translate(-3.997620, -7.005372) "></path>
            </g>
        </g>
    </g>
</svg>