<?xml version="1.0" encoding="UTF-8"?>
<svg width="20px" height="29px" viewBox="0 0 20 29" version="1.1" xmlns="http://www.w3.org/2000/svg" xmlns:xlink="http://www.w3.org/1999/xlink">
    <!-- Generator: sketchtool 52.2 (67145) - http://www.bohemiancoding.com/sketch -->
    <title>FB142CEC-008A-4C08-9848-AC0FD4ADFB7A</title>
    <desc>Created with sketchtool.</desc>
    <g id="Page-1" stroke="none" stroke-width="1" fill="none" fill-rule="evenodd">
        <g id="Контакты" transform="translate(-532.000000, -413.000000)" fill="#4F4F4F" fill-rule="nonzero">
            <g id="Group" transform="translate(532.000000, 413.000000)">
                <g id="Местоположение">
                    <g id="placeholder-(1)">
                        <path d="M10,0 C4.486,0 0,4.57361719 0,10.1953125 C0,12.0946992 0.516055556,13.9483203 1.49272222,15.5564609 L9.43077778,28.5983613 C9.58283333,28.8482031 9.85072222,29 10.1388333,29 C10.1410556,29 10.1432222,29 10.1454444,29 C10.4360556,28.9976777 10.7045,28.8411797 10.8537778,28.5869766 L18.5895,15.4187109 C19.5122778,13.8445547 20,12.0383418 20,10.1953125 C20,4.57361719 15.514,0 10,0 Z M17.1592222,14.546332 L10.1262222,26.5183477 L2.90927778,14.6611992 C2.09633333,13.322668 1.65555556,11.778418 1.65555556,10.1953125 C1.65555556,5.51056641 5.405,1.68789062 10,1.68789062 C14.595,1.68789062 18.3388889,5.51056641 18.3388889,10.1953125 C18.3388889,11.7314629 17.9271667,13.2362344 17.1592222,14.546332 Z" id="Shape"></path>
                        <path d="M10,5 C7.243,5 5,7.243 5,10 C5,12.7393889 7.2065,15 10,15 C12.8279444,15 15,12.7092778 15,10 C15,7.243 12.757,5 10,5 Z M10,13.3444444 C8.15238889,13.3444444 6.65555556,11.8426111 6.65555556,10 C6.65555556,8.162 8.162,6.65555556 10,6.65555556 C11.838,6.65555556 13.3388889,8.162 13.3388889,10 C13.3388889,11.8157222 11.8768889,13.3444444 10,13.3444444 Z" id="Shape"></path>
                    </g>
                </g>
            </g>
        </g>
    </g>
</svg>