<?xml version="1.0" encoding="UTF-8"?>
<svg width="61px" height="77px" viewBox="0 0 61 77" version="1.1" xmlns="http://www.w3.org/2000/svg" xmlns:xlink="http://www.w3.org/1999/xlink">
    <!-- Generator: sketchtool 52.2 (67145) - http://www.bohemiancoding.com/sketch -->
    <title>F2F562B7-1EA2-4294-BE88-E5248230CFD7</title>
    <desc>Created with sketchtool.</desc>
    <g id="Page-1" stroke="none" stroke-width="1" fill="none" fill-rule="evenodd">
        <g id="О-нас-(Моб)" transform="translate(-159.000000, -1630.000000)" fill="#4F4F4F" fill-rule="nonzero">
            <g id="Место" transform="translate(1.000000, 1572.000000)">
                <g id="placeholder" transform="translate(158.000000, 58.000000)">
                    <path d="M30.4840731,0 C13.6971279,0 0.0318537859,13.7996867 0.0318537859,30.7517493 C0.0318537859,32.6817755 0.207049608,34.6278851 0.573368146,36.5257441 C0.589295039,36.638329 0.653002611,36.9760836 0.780417755,37.5550914 C1.24229765,39.6298695 1.92715405,41.6724804 2.81906005,43.6185901 C6.1,51.4191123 13.3148825,63.4013577 29.1462141,76.2360313 C29.5443864,76.5577023 30.0221932,76.7185379 30.5,76.7185379 C30.9778068,76.7185379 31.4556136,76.5577023 31.8537859,76.2360313 C47.6691906,63.4013577 54.9,51.4191123 58.1809399,43.6185901 C59.072846,41.6724804 59.7577023,39.645953 60.2195822,37.5550914 C60.3469974,36.9760836 60.410705,36.638329 60.4266319,36.5257441 C60.7770235,34.6278851 60.9681462,32.6817755 60.9681462,30.7517493 C60.9362924,13.7996867 47.2710183,0 30.4840731,0 Z M56.1582245,35.7698172 C56.1582245,35.8019843 56.1422977,35.8341514 56.1422977,35.8663185 C56.1263708,35.9467363 56.0785901,36.1879896 55.9989556,36.5579112 C55.9989556,36.5739948 55.9989556,36.5739948 55.9989556,36.5900783 C55.6007833,38.391436 55.0114883,40.1445431 54.2310705,41.8333159 C54.2151436,41.8493995 54.2151436,41.8815666 54.1992167,41.8976501 C51.2208877,49.0226632 44.6908616,59.8951436 30.4840731,71.7487206 C16.2772846,59.8951436 9.74725849,49.0226632 6.7689295,41.8976501 C6.75300261,41.8815666 6.75300261,41.8493995 6.73707572,41.8333159 C5.97258486,40.1606266 5.38328982,38.391436 4.9691906,36.5900783 C4.9691906,36.5739948 4.9691906,36.5739948 4.9691906,36.5579112 C4.87362924,36.1879896 4.84177546,35.9467363 4.82584856,35.8663185 C4.82584856,35.8341514 4.80992167,35.8019843 4.80992167,35.7537337 C4.49138381,34.0971279 4.33211488,32.4244386 4.33211488,30.7356658 C4.33211488,16.1800522 16.070235,4.3264752 30.4840731,4.3264752 C44.8979112,4.3264752 56.6360313,16.1800522 56.6360313,30.7356658 C56.6360313,32.4405222 56.4767624,34.129295 56.1582245,35.7698172 Z" id="Shape"></path>
                    <path d="M30.4840731,11.5640731 C19.8289817,11.5640731 11.1488251,20.3296084 11.1488251,31.0895039 C11.1488251,41.8493995 19.8289817,50.6149347 30.4840731,50.6149347 C41.1391645,50.6149347 49.8193211,41.8493995 49.8193211,31.0895039 C49.8193211,20.3296084 41.1391645,11.5640731 30.4840731,11.5640731 Z M30.4840731,46.272376 C22.1861619,46.272376 15.4490862,39.4529504 15.4490862,31.0895039 C15.4490862,22.7260574 22.2020888,15.9066319 30.4840731,15.9066319 C38.7660574,15.9066319 45.5190601,22.7260574 45.5190601,31.0895039 C45.5190601,39.4529504 38.7819843,46.272376 30.4840731,46.272376 Z" id="Shape"></path>
                </g>
            </g>
        </g>
    </g>
</svg>