<?xml version="1.0" encoding="UTF-8"?>
<svg width="15px" height="14px" viewBox="0 0 15 14" version="1.1" xmlns="http://www.w3.org/2000/svg" xmlns:xlink="http://www.w3.org/1999/xlink">
    <!-- Generator: sketchtool 52.2 (67145) - http://www.bohemiancoding.com/sketch -->
    <title>92038A1E-9D4A-43C2-90A0-629568164A8B</title>
    <desc>Created with sketchtool.</desc>
    <g id="Page-1" stroke="none" stroke-width="1" fill="none" fill-rule="evenodd">
        <g id="Главная-2-(Моб)" transform="translate(-205.000000, -511.000000)" fill="#4F4F4F" fill-rule="nonzero">
            <g id="Бизнесы" transform="translate(194.000000, 499.000000)">
                <g id="portfolio" transform="translate(11.000000, 12.000000)">
                    <path d="M14.5632935,1.86678819 C14.5623779,1.86678819 14.5614624,1.86666667 14.5605469,1.86666667 L10.5761719,1.86666667 L10.5761719,1.4 C10.5761719,0.628055556 9.98474121,0 9.2578125,0 L5.7421875,0 C5.01525879,0 4.42382812,0.628055556 4.42382812,1.4 L4.42382812,1.86666667 L0.439453125,1.86666667 C0.194778457,1.86666667 0,2.07958333 0,2.33333333 L0,12.6 C0,13.3719444 0.591430664,14 1.31835938,14 L13.6816406,14 C14.4085693,14 15,13.3719444 15,12.6 L15,2.34317708 C15,2.34256944 15,2.34196181 15,2.34135415 C14.9831772,2.03486111 14.8056793,1.86848959 14.5632935,1.86678819 Z M5.30273438,1.4 C5.30273438,1.1427257 5.49991608,0.933333333 5.7421875,0.933333333 L9.2578125,0.933333333 C9.50008392,0.933333333 9.69726562,1.1427257 9.69726562,1.4 L9.69726562,1.86666667 L5.30273438,1.86666667 L5.30273438,1.4 Z M13.9508057,2.8 L12.5860977,7.14753474 C12.5262451,7.33845485 12.3587036,7.46666667 12.1693039,7.46666667 L9.69726562,7.46666667 L9.69726562,7 C9.69726562,6.74223959 9.50054168,6.53333333 9.2578125,6.53333333 L5.7421875,6.53333333 C5.49945832,6.53333333 5.30273438,6.74223959 5.30273438,7 L5.30273438,7.46666667 L2.83069611,7.46666667 C2.64129639,7.46666667 2.47375488,7.33845485 2.41390228,7.14753474 L1.04919434,2.8 L13.9508057,2.8 Z M8.81835938,7.46666667 L8.81835938,8.4 L6.18164062,8.4 L6.18164062,7.46666667 L8.81835938,7.46666667 Z M14.1210938,12.6 C14.1210938,12.8572743 13.923912,13.0666667 13.6816406,13.0666667 L1.31835938,13.0666667 C1.07608796,13.0666667 0.87890625,12.8572743 0.87890625,12.6 L0.87890625,5.20904515 L1.58008576,7.4427257 C1.75975799,8.01536459 2.2623825,8.4 2.83069611,8.4 L5.30273438,8.4 L5.30273438,8.86666667 C5.30273438,9.12442708 5.49945832,9.33333333 5.7421875,9.33333333 L9.2578125,9.33333333 C9.50054168,9.33333333 9.69726562,9.12442708 9.69726562,8.86666667 L9.69726562,8.4 L12.1693039,8.4 C12.7376175,8.4 13.240242,8.01536459 13.4199142,7.4427257 L14.1210938,5.20904515 L14.1210938,12.6 Z" id="Shape"></path>
                </g>
            </g>
        </g>
    </g>
</svg>