<?xml version="1.0" encoding="UTF-8"?>
<svg width="80px" height="67px" viewBox="0 0 80 67" version="1.1" xmlns="http://www.w3.org/2000/svg" xmlns:xlink="http://www.w3.org/1999/xlink">
    <!-- Generator: sketchtool 52.2 (67145) - http://www.bohemiancoding.com/sketch -->
    <title>C634D3BF-E1DA-4B01-89E7-3B5238379F8F</title>
    <desc>Created with sketchtool.</desc>
    <g id="Page-1" stroke="none" stroke-width="1" fill="none" fill-rule="evenodd">
        <g id="Главная-языки" transform="translate(-1352.000000, -3196.000000)" fill="#4F4F4F">
            <g id="Вещи" transform="translate(455.000000, 2728.000000)">
                <g id="Group" transform="translate(0.000000, 468.000000)">
                    <g id="Техника" transform="translate(893.000000, 0.000000)">
                        <g id="printer" transform="translate(4.000000, 0.000000)">
                            <path d="M74.2197271,10.1721637 L59.3138402,10.1721637 L59.3138402,1.75984405 C59.3138402,0.824951267 58.5556335,0.0667446394 57.6207407,0.0667446394 L22.2233138,0.0667446394 C21.2884211,0.0667446394 20.5302144,0.824951267 20.5302144,1.75984405 L20.5302144,10.1723197 L5.62432749,10.1723197 C2.52304094,10.1721637 0,12.6953606 0,15.7966472 L0,42.7497856 C0,45.8510721 2.52304094,48.374269 5.62432749,48.374269 L20.5302144,48.374269 L20.5302144,64.6729045 C20.5302144,65.6077973 21.2884211,66.3660039 22.2233138,66.3660039 L57.6208967,66.3660039 C58.5557895,66.3660039 59.3139961,65.6077973 59.3139961,64.6729045 L59.3139961,48.374269 L74.219883,48.374269 C77.3210136,48.374269 79.8442105,45.8512281 79.8442105,42.7497856 L79.8442105,15.7966472 C79.8440546,12.6953606 77.3208577,10.1721637 74.2197271,10.1721637 Z M59.3136842,13.5582066 L63.3522027,13.5582066 L63.3522027,18.2966082 L59.3136842,18.2966082 L59.3136842,13.5582066 Z M23.9162573,3.45294347 L55.9276413,3.45294347 L55.9276413,18.2967641 L23.9162573,18.2967641 L23.9162573,3.45294347 Z M16.4916959,13.5583626 L20.5302144,13.5583626 L20.5302144,18.2967641 L16.4916959,18.2967641 L16.4916959,13.5583626 Z M55.9277973,62.9798051 L23.9162573,62.9798051 L23.9162573,40.682885 L55.9277973,40.682885 L55.9277973,62.9798051 Z M76.4581676,42.7497856 L76.4580117,42.7497856 C76.4580117,43.9840936 75.4538791,44.9882261 74.219883,44.9882261 L59.3138402,44.9882261 L59.3138402,40.6830409 L62.4023392,40.6830409 C63.337232,40.6830409 64.0954386,39.9248343 64.0954386,38.9899415 C64.0954386,38.0550487 63.337232,37.2968421 62.4023392,37.2968421 L57.6208967,37.2968421 L22.2233138,37.2968421 L17.4418713,37.2968421 C16.5069786,37.2968421 15.7487719,38.0550487 15.7487719,38.9899415 C15.7487719,39.9248343 16.5069786,40.6830409 17.4418713,40.6830409 L20.5303704,40.6830409 L20.5303704,44.9882261 L5.62432749,44.9882261 C4.39033138,44.9882261 3.38619883,43.9840936 3.38619883,42.7497856 L3.38619883,15.7966472 C3.38619883,14.5624951 4.39033138,13.5582066 5.62432749,13.5582066 L13.105653,13.5582066 L13.105653,19.9895517 C13.105653,20.9244444 13.8637037,21.6826511 14.7987524,21.6826511 L65.0454581,21.6826511 C65.9803509,21.6826511 66.7385575,20.9244444 66.7385575,19.9895517 L66.7385575,13.5582066 L74.219883,13.5582066 C75.4538791,13.5582066 76.4581676,14.5623392 76.4581676,15.7966472 L76.4581676,42.7497856 Z" id="Shape" fill-rule="nonzero"></path>
                            <circle id="Oval" cx="10.7288889" cy="27.4870955" r="2.12116959"></circle>
                            <path d="M39.4306433,53.5603899 L31.5273294,53.5603899 C30.5924366,53.5603899 29.83423,54.3182846 29.83423,55.2534893 C29.83423,56.1883821 30.5922807,56.9465887 31.5273294,56.9465887 L39.4306433,56.9465887 C40.3655361,56.9465887 41.1237427,56.1883821 41.1237427,55.2534893 C41.1237427,54.3182846 40.3655361,53.5603899 39.4306433,53.5603899 Z" id="Path"></path>
                            <path d="M48.3167251,44.9876023 L31.5273294,44.9876023 C30.5924366,44.9876023 29.83423,45.745809 29.83423,46.6807018 C29.83423,47.6157505 30.5922807,48.3738012 31.5273294,48.3738012 L48.3165692,48.3738012 C49.251462,48.3738012 50.0096686,47.6157505 50.0096686,46.6807018 C50.0096686,45.745809 49.2516179,44.9876023 48.3167251,44.9876023 Z" id="Path"></path>
                        </g>
                    </g>
                </g>
            </g>
        </g>
    </g>
</svg>