<?xml version="1.0" encoding="UTF-8"?>
<svg width="80px" height="52px" viewBox="0 0 80 52" version="1.1" xmlns="http://www.w3.org/2000/svg" xmlns:xlink="http://www.w3.org/1999/xlink">
    <!-- Generator: sketchtool 52.2 (67145) - http://www.bohemiancoding.com/sketch -->
    <title>D587F423-09AD-4B93-A360-B003108D2E2E</title>
    <desc>Created with sketchtool.</desc>
    <g id="Page-1" stroke="none" stroke-width="1" fill="none" fill-rule="evenodd">
        <g id="Главная-языки" transform="translate(-497.000000, -3211.000000)" fill="#4F4F4F" fill-rule="nonzero">
            <g id="Вещи" transform="translate(455.000000, 2728.000000)">
                <g id="Group" transform="translate(0.000000, 468.000000)">
                    <g id="Велосипед" transform="translate(0.000000, 15.000000)">
                        <g id="bicycle-(1)" transform="translate(42.000000, 0.000000)">
                            <path d="M63.3339062,18.43625 C61.8129688,18.43625 60.3384375,18.64125 58.9346875,19.0257813 L54.6426563,7.86265625 L56.1954687,6.26609375 C56.8301563,5.61171875 56.8229688,4.569375 56.1784375,3.92359375 L52.8459375,0.59234375 C52.5334375,0.27984375 52.1085938,0.1028125 51.6667188,0.1028125 L43.3345313,0.1028125 C42.4140625,0.1028125 41.6670313,0.84984375 41.6670313,1.7703125 C41.6670313,2.69078125 42.4139062,3.4365625 43.334375,3.4365625 L50.975625,3.4365625 L52.6601562,5.11984375 L51.5078125,6.30140625 C51.0439062,6.77875 50.9267187,7.4634375 51.1440625,8.049375 C51.1440625,8.05296875 51.1465625,8.05796875 51.1465625,8.0628125 L52.6796875,12.0471875 L29.9995313,14.8817188 L29.9995313,11.7701563 L34.9995313,11.7701563 C35.92,11.7701563 36.6670313,11.023125 36.6670313,10.1028125 C36.6670313,9.1825 35.92,8.4365625 34.9995313,8.4365625 L24.9996875,8.4365625 C24.0792188,8.4365625 23.3334375,9.18234375 23.3334375,10.1028125 C23.3334375,11.0232813 24.0792188,11.7701563 24.9996875,11.7701563 L26.6670313,11.7701563 L26.6670313,16.3184375 L24.3392188,20.31 C22.040625,19.11375 19.4320313,18.43625 16.6671875,18.43625 C7.4778125,18.43625 0,25.9129688 0,35.1007813 C0,44.2951563 7.4778125,51.7704688 16.6671875,51.7704688 C24.7164062,51.7704688 31.4495312,46.0334375 32.9985937,38.4357813 L35.2860937,38.4357813 C35.9745313,40.3767188 37.82625,41.7707813 40.0003125,41.7707813 C42.7578125,41.7707813 44.9989063,39.5295313 44.9989063,36.7707813 C44.9989063,35.6184375 44.6084375,34.5542188 43.9492187,33.7095313 L54.6251562,17.1032813 L55.8239063,20.2257813 C50.3967188,22.9760938 46.6664063,28.611875 46.6664063,35.1007813 C46.6664063,44.2951563 54.1442188,51.7704688 63.3335938,51.7704688 C72.5229688,51.7704688 79.9982813,44.2951563 79.9982813,35.1007813 C79.9985937,25.9128125 72.523125,18.43625 63.3339062,18.43625 Z M16.6673438,48.435625 C9.31515625,48.435625 3.33390625,42.4542188 3.33390625,35.100625 C3.33390625,27.7510938 9.3153125,21.7698438 16.6673438,21.7698438 C18.820625,21.7698438 20.8554687,22.2825 22.6571875,23.193125 L15.226875,35.9307813 C14.7642187,36.7267188 15.0315625,37.7446875 15.8275,38.2110938 C16.0923437,38.3625 16.3804687,38.4357813 16.6660937,38.4357813 C16.6660937,38.4357813 16.6709375,38.4357813 16.6746875,38.4357813 L29.5784375,38.4357813 C28.0940625,44.1826563 22.8682812,48.435625 16.6673438,48.435625 Z M19.5689063,35.100625 L25.428125,25.0595313 C28.2284375,27.5057813 29.9995313,31.1020313 29.9995313,35.100625 L19.5689063,35.100625 Z M35.28625,35.100625 L33.333125,35.100625 C33.333125,29.8715625 30.9114062,25.1975 27.1309375,22.1396875 L28.3332812,20.0767188 L36.1859375,33.5384375 C35.7989062,33.9975 35.4914062,34.5246875 35.28625,35.100625 Z M40.000625,38.435625 C39.0801562,38.435625 38.333125,37.6860938 38.333125,36.770625 C38.333125,35.8478125 39.0801562,35.100625 40.000625,35.100625 C40.9198437,35.100625 41.666875,35.8476563 41.666875,36.770625 C41.666875,37.6860938 40.9198437,38.435625 40.000625,38.435625 Z M41.146875,31.9026563 C40.7770312,31.8173438 40.3948437,31.7709375 40.000625,31.7709375 C39.6795312,31.7709375 39.3670312,31.8003125 39.065625,31.85875 L31.0457812,18.1101563 L51.6690625,15.5320313 L41.146875,31.9026563 Z M63.3339062,48.435625 C55.9804687,48.435625 49.9990625,42.4542188 49.9990625,35.100625 C49.9990625,30.0301563 52.850625,25.61 57.0303125,23.3565625 L61.77875,35.7010938 C62.0351562,36.3603125 62.665,36.7704688 63.3339062,36.7704688 C63.5317187,36.7704688 63.7342187,36.7314063 63.9320312,36.658125 C64.79125,36.3260938 65.2184375,35.3642188 64.8914062,34.5051563 L60.1382812,22.1567188 C61.1635937,21.9040625 62.2353125,21.7696875 63.3339062,21.7696875 C70.6848437,21.7696875 76.6660937,27.7509375 76.6660937,35.1004688 C76.6660937,42.4542188 70.6848437,48.435625 63.3339062,48.435625 Z" id="Shape"></path>
                        </g>
                    </g>
                </g>
            </g>
        </g>
    </g>
</svg>