<?xml version="1.0" encoding="UTF-8"?>
<svg width="23px" height="24px" viewBox="0 0 23 24" version="1.1" xmlns="http://www.w3.org/2000/svg" xmlns:xlink="http://www.w3.org/1999/xlink">
    <!-- Generator: sketchtool 52.2 (67145) - http://www.bohemiancoding.com/sketch -->
    <title>CAFAB21D-AE2A-4A57-A309-A1EE70E21D0E</title>
    <desc>Created with sketchtool.</desc>
    <g id="Page-1" stroke="none" stroke-width="1" fill="none" fill-rule="evenodd">
        <g id="Контакты" transform="translate(-1166.000000, -414.000000)" fill="#4F4F4F" fill-rule="nonzero">
            <g id="Group" transform="translate(532.000000, 413.000000)">
                <g id="Соц" transform="translate(634.000000, 1.000000)">
                    <g id="share">
                        <path d="M18.6330396,15.4186047 C17.2297357,15.4186047 15.9784141,16.076412 15.1779736,17.0930233 L8.47555066,13.410299 C8.63259912,12.9667774 8.71872247,12.4883721 8.71872247,11.9950166 C8.71872247,11.4966777 8.63259912,11.0232558 8.47048458,10.5747508 L15.1678414,6.89700997 C15.9632159,7.91860465 17.2196035,8.58139535 18.6279736,8.58139535 C21.0292952,8.58139535 22.9898678,6.65780731 22.9898678,4.29069767 C22.9898678,1.92358804 21.0343612,0 18.6279736,0 C16.2215859,0 14.2660793,1.92358804 14.2660793,4.29069767 C14.2660793,4.78903654 14.3522026,5.26744186 14.5143172,5.71096346 L7.82202643,9.38870432 C7.02665198,8.36212625 5.77026432,7.70431894 4.36189427,7.70431894 C1.96057269,7.70431894 0,9.62790698 0,11.9950166 C0,14.3621262 1.96057269,16.2857143 4.36696035,16.2857143 C5.7753304,16.2857143 7.03171806,15.6229236 7.83215859,14.5963455 L14.5295154,18.2790698 C14.3674009,18.7275748 14.2762115,19.2109635 14.2762115,19.7093023 C14.2762115,22.0714286 16.2317181,24 18.6381057,24 C21.0444934,24 23,22.076412 23,19.7093023 C23,17.3421927 21.0394273,15.4186047 18.6330396,15.4186047 Z M18.6330396,1.35049834 C20.2845815,1.35049834 21.6270925,2.67109635 21.6270925,4.29568106 C21.6270925,5.92026578 20.2845815,7.24086379 18.6330396,7.24086379 C16.9814978,7.24086379 15.6389868,5.92026578 15.6389868,4.29568106 C15.6389868,2.67109635 16.9865639,1.35049834 18.6330396,1.35049834 Z M4.36696035,14.9401993 C2.7154185,14.9401993 1.37290749,13.6196013 1.37290749,11.9950166 C1.37290749,10.3704319 2.7154185,9.04983389 4.36696035,9.04983389 C6.0185022,9.04983389 7.36101322,10.3704319 7.36101322,11.9950166 C7.36101322,13.6196013 6.01343612,14.9401993 4.36696035,14.9401993 Z M18.6330396,22.6495017 C16.9814978,22.6495017 15.6389868,21.3289037 15.6389868,19.7043189 C15.6389868,18.0797342 16.9814978,16.7591362 18.6330396,16.7591362 C20.2845815,16.7591362 21.6270925,18.0797342 21.6270925,19.7043189 C21.6270925,21.3289037 20.2845815,22.6495017 18.6330396,22.6495017 Z" id="Shape"></path>
                    </g>
                </g>
            </g>
        </g>
    </g>
</svg>