<?xml version="1.0" encoding="UTF-8"?>
<svg width="60px" height="71px" viewBox="0 0 60 71" version="1.1" xmlns="http://www.w3.org/2000/svg" xmlns:xlink="http://www.w3.org/1999/xlink">
    <!-- Generator: sketchtool 52.2 (67145) - http://www.bohemiancoding.com/sketch -->
    <title>1CB60EA4-7B9E-47F9-B8A1-43DE0390924D</title>
    <desc>Created with sketchtool.</desc>
    <g id="Page-1" stroke="none" stroke-width="1" fill="none" fill-rule="evenodd">
        <g id="Главная-языки" transform="translate(-929.000000, -2315.000000)" fill="#4F4F4F">
            <g id="Как-оформить" transform="translate(401.000000, 2128.000000)">
                <g id="Group-4" transform="translate(0.000000, 129.000000)">
                    <g id="Размер" transform="translate(374.000000, 0.000000)">
                        <g id="shield-(2)" transform="translate(154.000000, 57.403670)">
                            <path d="M59.92958,20.2547664 L59.9274297,20.1999355 C59.896789,19.5231507 59.8763617,18.8071245 59.863998,18.0104644 C59.8064794,14.1255375 56.7182125,10.9120198 52.832748,10.6948467 C44.7317589,10.2427608 38.4649155,7.60120413 33.1103067,2.38205995 L33.0646144,2.33851771 C31.3180906,0.737134495 28.6835221,0.737134495 26.9364607,2.33851771 L26.8907683,2.38205995 C21.5361597,7.60120413 15.2693162,10.2427608 7.16832716,10.6953842 C3.28340023,10.9120198 0.194595688,14.1255375 0.137077156,18.011002 C0.125250826,18.8022864 0.104286055,19.5183128 0.0736453211,20.1999355 L0.0704200459,20.3273365 C-0.0870842202,28.5879802 -0.282755229,38.8687644 3.1565367,48.2002222 C5.04766349,53.3317446 7.91176899,57.7923953 11.6687572,61.459074 C15.9477136,65.6348194 21.5522864,68.9499355 28.326584,71.3119625 C28.5469825,71.3888332 28.775982,71.4511897 29.0092818,71.4979572 C29.3382669,71.5635393 29.6694022,71.5963303 30.0005375,71.5963303 C30.3316728,71.5963303 30.6633457,71.5635393 30.9917933,71.4979572 C31.2250932,71.4511897 31.4557053,71.3882956 31.6771789,71.3108873 C38.4434132,68.94456 44.0420728,65.6278311 48.3172664,61.4526232 C52.0726419,57.7848696 54.9367474,53.3231437 56.8294869,48.1905462 C60.28168,38.8311353 60.0865467,28.5309992 59.92958,20.2547664 Z M52.9504731,46.7601061 C49.3230361,56.5952552 41.9181838,63.3496632 30.3128584,67.408221 C30.2714664,67.4221976 30.2273868,67.4345613 30.1816943,67.4436999 C30.0618191,67.4673524 29.9397936,67.4673524 29.8183057,67.4431622 C29.7731507,67.4340238 29.7290711,67.4221976 29.6882167,67.408221 C18.0705275,63.3571889 10.6608372,56.6065439 7.03608798,46.7708572 C3.86611239,38.1694022 4.04565661,28.7320456 4.20423592,20.4063575 L4.2053111,20.3601276 C4.23756454,19.6446388 4.25906683,18.8952838 4.27089303,18.0717461 C4.29669578,16.3467244 5.67069234,14.9195098 7.39893922,14.823287 C11.9832282,14.5674097 16.0106078,13.6815152 19.7111525,12.1150731 C23.4068593,10.5507813 26.6891843,8.34572101 29.7446602,5.37410404 C29.9000144,5.24294005 30.1015983,5.24240252 30.2564148,5.37410404 C33.3124283,8.34572101 36.5947534,10.5507813 40.2899227,12.1150731 C43.9904672,13.6815152 48.017847,14.5674097 52.6026735,14.823287 C54.3309204,14.9195098 55.7049168,16.3467244 55.730182,18.0722836 C55.7425459,18.9001219 55.7640482,19.6494767 55.7963016,20.3601276 C55.9543434,28.6954917 56.1295872,38.1403742 52.9504731,46.7601061 Z" id="Shape" fill-rule="nonzero"></path>
                            <path d="M29.9994625,18.8087371 C20.3169797,18.8087371 12.440152,26.6861024 12.440152,36.3680475 C12.440152,46.0505305 20.3169797,53.9278956 29.9994625,53.9278956 C39.6814076,53.9278956 47.5587729,46.0505305 47.5587729,36.3680475 C47.5587729,26.6861024 39.6814076,18.8087371 29.9994625,18.8087371 Z M29.9994625,49.7930046 C22.5967603,49.7930046 16.5745054,43.7707497 16.5745054,36.3680475 C16.5745054,28.9653455 22.5967603,22.9430906 29.9994625,22.9430906 C37.401627,22.9430906 43.4238819,28.9653455 43.4238819,36.3680475 C43.4238819,43.7707497 37.401627,49.7930046 29.9994625,49.7930046 Z" id="Shape" fill-rule="nonzero"></path>
                            <path d="M35.0460508,30.9166786 L26.8902308,39.0724985 L24.6765696,36.8588375 C23.8691586,36.0514263 22.5602064,36.0514263 21.7527952,36.8588375 C20.9459217,37.6662485 20.9459217,38.9752007 21.7527952,39.7820742 L25.4286124,43.4578914 C25.832318,43.861597 26.3612744,44.0631809 26.8902308,44.0631809 C27.4191872,44.0631809 27.9481437,43.861597 28.3518493,43.4578914 L37.969825,33.8399155 C38.7766987,33.0325043 38.7766987,31.7235521 37.969825,30.9166786 C37.162414,30.10873 35.8534618,30.10873 35.0460508,30.9166786 Z" id="Path"></path>
                        </g>
                    </g>
                </g>
            </g>
        </g>
    </g>
</svg>