<?xml version="1.0" encoding="UTF-8"?>
<svg width="13px" height="13px" viewBox="0 0 13 13" version="1.1" xmlns="http://www.w3.org/2000/svg" xmlns:xlink="http://www.w3.org/1999/xlink">
    <!-- Generator: sketchtool 52.2 (67145) - http://www.bohemiancoding.com/sketch -->
    <title>3E8B99A2-FB9F-4F20-8F9E-DA1926105A50</title>
    <desc>Created with sketchtool.</desc>
    <g id="Page-1" stroke="none" stroke-width="1" fill="none" fill-rule="evenodd">
        <g id="Поп-ап-Заказа-(Моб)" transform="translate(-72.000000, -255.000000)" fill="#C7C7C7">
            <g id="Group" transform="translate(0.000000, -20.000000)">
                <g id="Group-5" transform="translate(51.000000, 249.000000)">
                    <g id="smartphone-(2)" transform="translate(21.000000, 26.000000)">
                        <circle id="Oval" cx="6.5" cy="9.5" r="1"></circle>
                        <path d="M7.74654278,3 L5.25345722,3 C5.11370685,3 5,3.12519265 5,3.27878815 L5,8.72121185 C5,8.87493945 5.11363059,9 5.25345722,9 L7.74654278,9 C7.88629315,9 8,8.87480735 8,8.72121185 L8,3.27878815 C7.99992374,3.12506055 7.88629315,3 7.74654278,3 Z" id="Path"></path>
                        <path d="M6.49982667,0 C2.91011273,0 0,2.91031 0,6.49987 C0,10.08943 2.91011273,13 6.49982667,13 C10.0895406,13 13,10.0896033 13,6.49987 C13,2.91013667 10.0895406,0 6.49982667,0 Z M9.02869019,9.70757667 C9.02869019,10.20409 8.62612084,10.6067 8.12956086,10.6067 L4.8702658,10.6067 C4.37374916,10.6067 3.97113647,10.2041333 3.97113647,9.70757667 L3.97113647,3.26399667 C3.97113647,2.76748333 4.37370582,2.36487333 4.8702658,2.36487333 L8.12956086,2.36487333 C8.62607751,2.36487333 9.02869019,2.76744 9.02869019,3.26399667 L9.02869019,9.70757667 Z" id="Shape" fill-rule="nonzero"></path>
                    </g>
                </g>
            </g>
        </g>
    </g>
</svg>