<?xml version="1.0" encoding="UTF-8"?>
<svg width="15px" height="27px" viewBox="0 0 15 27" version="1.1" xmlns="http://www.w3.org/2000/svg" xmlns:xlink="http://www.w3.org/1999/xlink">
    <!-- Generator: sketchtool 52.2 (67145) - http://www.bohemiancoding.com/sketch -->
    <title>CA7D7599-7EC6-4F51-81C4-7056D1B3E20D</title>
    <desc>Created with sketchtool.</desc>
    <g id="Page-1" stroke="none" stroke-width="1" fill="none" fill-rule="evenodd">
        <g id="Контакты" transform="translate(-877.000000, -413.000000)" fill="#4F4F4F" fill-rule="nonzero">
            <g id="Group" transform="translate(532.000000, 413.000000)">
                <g id="Телефоны" transform="translate(345.000000, 0.000000)">
                    <g id="smartphone-call">
                        <path d="M13.2559512,0 L1.74404879,0 C0.784969506,0 0,0.820028571 0,1.82365714 L0,25.1755714 C-6.55256556e-16,26.1792 0.784969506,27 1.74404879,27 L13.2559512,27 C14.2150305,27 15,26.1807429 15,25.1763429 L15,1.82365714 C15,0.820028571 14.2150305,0 13.2559512,0 Z M5.65856777,1.31451429 L9.34143223,1.31451429 C9.45799725,1.31451429 9.55242967,1.41325714 9.55242967,1.53591429 C9.55242967,1.6578 9.45799725,1.75654286 9.34143223,1.75654286 L5.65856777,1.75654286 C5.54200275,1.75654286 5.44757033,1.6578 5.44757033,1.53591429 C5.44757033,1.41325714 5.54200275,1.31451429 5.65856777,1.31451429 Z M7.5,26.0881714 C7.0182471,26.0881714 6.6279756,25.6800857 6.6279756,25.1755714 C6.6279756,24.6710571 7.0182471,24.2637429 7.5,24.2637429 C7.9817529,24.2637429 8.3720244,24.6710571 8.3720244,25.1755714 C8.3720244,25.6800857 7.9817529,26.0881714 7.5,26.0881714 Z M13.7863958,23.625 L1.21360417,23.625 L1.21360417,2.89208571 L13.7863958,2.89208571 L13.7863958,23.625 Z" id="Shape"></path>
                    </g>
                </g>
            </g>
        </g>
    </g>
</svg>