<?xml version="1.0" encoding="UTF-8"?>
<svg width="91px" height="71px" viewBox="0 0 91 71" version="1.1" xmlns="http://www.w3.org/2000/svg" xmlns:xlink="http://www.w3.org/1999/xlink">
    <!-- Generator: sketchtool 52.2 (67145) - http://www.bohemiancoding.com/sketch -->
    <title>AEE0118E-C74B-4DF6-AB4C-63C8C6325CAF</title>
    <desc>Created with sketchtool.</desc>
    <g id="Page-1" stroke="none" stroke-width="1" fill="none" fill-rule="evenodd">
        <g id="Главная-языки" transform="translate(-1344.000000, -2967.000000)" fill="#4F4F4F">
            <g id="Вещи" transform="translate(455.000000, 2728.000000)">
                <g id="Group" transform="translate(34.000000, 224.000000)">
                    <g id="Мебель" transform="translate(823.000000, 15.000000)">
                        <g id="sofa" transform="translate(32.000000, 0.000000)">
                            <path d="M83.4166667,18.281859 L81.9,18.281859 L81.9,7.61744125 C81.8950708,3.41261368 78.5026667,0.00495133681 74.3166667,0 L16.6833333,0 C12.4973333,0.00495133681 9.10492917,3.41261368 9.1,7.61744125 L9.1,18.281859 L7.58333333,18.281859 C3.39733333,18.2868103 0.00492916667,21.6944727 0,25.8993002 L0,50.2751122 C0.00492916667,54.4799398 3.39733333,57.8876022 7.58333333,57.8925535 L9.1,57.8925535 L9.1,68.5569712 C9.1,69.3983176 9.7790875,70.0804595 10.6166667,70.0804595 L13.65,70.0804595 C14.2826396,70.0808404 14.8491146,69.6868282 15.0711167,69.0917156 L19.25105,57.8925535 L71.74895,57.8925535 L75.9288833,69.0917156 C76.1508854,69.6868282 76.7173604,70.0808404 77.35,70.0804595 L80.3833333,70.0804595 C81.2209125,70.0804595 81.9,69.3983176 81.9,68.5569712 L81.9,57.8925535 L83.4166667,57.8925535 C87.6026667,57.8876022 90.9950708,54.4799398 91,50.2751122 L91,25.8993002 C90.9950708,21.6944727 87.6026667,18.2868103 83.4166667,18.281859 Z M12.1333333,7.61744125 C12.1333333,5.09321166 14.1704063,3.0469765 16.6833333,3.0469765 L74.3166667,3.0469765 C76.8295938,3.0469765 78.8666667,5.09321166 78.8666667,7.61744125 L78.8666667,18.281859 L74.3166667,18.281859 C73.4790875,18.281859 72.8,18.9640009 72.8,19.8053472 L72.8,36.563718 L18.2,36.563718 L18.2,19.8053472 C18.2,18.9640009 17.5209125,18.281859 16.6833333,18.281859 L12.1333333,18.281859 L12.1333333,7.61744125 Z M3.03333333,25.8993002 C3.03333333,23.3750707 5.07040625,21.3288355 7.58333333,21.3288355 L15.1666667,21.3288355 L15.1666667,36.563718 L3.03333333,36.563718 L3.03333333,25.8993002 Z M12.59895,67.033483 L12.1333333,67.033483 L12.1333333,57.8925535 L16.01145,57.8925535 L12.59895,67.033483 Z M78.8666667,67.033483 L78.40105,67.033483 L74.98855,57.8925535 L78.8666667,57.8925535 L78.8666667,67.033483 Z M87.9666667,50.2751122 C87.9666667,52.7993418 85.9295937,54.845577 83.4166667,54.845577 L7.58333333,54.845577 C5.07040625,54.845577 3.03333333,52.7993418 3.03333333,50.2751122 L3.03333333,39.6106945 L87.9666667,39.6106945 L87.9666667,50.2751122 Z M87.9666667,36.563718 L75.8333333,36.563718 L75.8333333,21.3288355 L83.4166667,21.3288355 C85.9295938,21.3288355 87.9666667,23.3750707 87.9666667,25.8993002 L87.9666667,36.563718 Z" id="Shape" fill-rule="nonzero"></path>
                            <path d="M7.79728318,52.2988506 L71.6969697,52.2988506 C72.5371745,52.2988506 73.2183908,51.5963463 73.2183908,50.7298851 C73.2183908,49.8634239 72.5371745,49.1609195 71.6969697,49.1609195 L7.79728318,49.1609195 C6.95707837,49.1609195 6.27586207,49.8634239 6.27586207,50.7298851 C6.27586207,51.5963463 6.95707837,52.2988506 7.79728318,52.2988506 Z" id="Path"></path>
                            <path d="M76.8793103,52.2988506 L83.1551724,52.2988506 C84.0216336,52.2988506 84.7241379,51.5963463 84.7241379,50.7298851 C84.7241379,49.8634239 84.0216336,49.1609195 83.1551724,49.1609195 L76.8793103,49.1609195 C76.0128491,49.1609195 75.3103448,49.8634239 75.3103448,50.7298851 C75.3103448,51.5963463 76.0128491,52.2988506 76.8793103,52.2988506 Z" id="Path"></path>
                        </g>
                    </g>
                </g>
            </g>
        </g>
    </g>
</svg>