<?xml version="1.0" encoding="UTF-8"?>
<svg width="27px" height="27px" viewBox="0 0 27 27" version="1.1" xmlns="http://www.w3.org/2000/svg" xmlns:xlink="http://www.w3.org/1999/xlink">
    <!-- Generator: sketchtool 52.2 (67145) - http://www.bohemiancoding.com/sketch -->
    <title>C75D4E68-8575-40CF-9423-C3820DF257D4</title>
    <desc>Created with sketchtool.</desc>
    <g id="Page-1" stroke="none" stroke-width="1" fill="none" fill-rule="evenodd">
        <g id="Главная---Меню-(Моб)" transform="translate(-196.000000, -14.000000)" fill="#FFFFFF">
            <g id="Group">
                <g id="telegram" transform="translate(196.000000, 14.000000)">
                    <path d="M18.7249737,8.87583553 L8.82722368,15.0145461 C8.65296711,15.1226053 8.57368421,15.3348158 8.63449342,15.5306842 L9.96217105,19.8088224 C9.99005921,19.8987039 10.1210329,19.8863289 10.1315724,19.7927763 L10.4542697,16.9241447 C10.4667039,16.8133026 10.519875,16.7110461 10.6034211,16.6371513 L18.9850263,9.22535526 C19.1856908,9.04796053 18.9526382,8.73461842 18.7249737,8.87583553 Z" id="Path"></path>
                    <path d="M0,5 L0,21.9840724 C3.38176876e-16,24.7454961 2.23857625,26.9840724 5,26.9840724 L21.9840724,26.9840724 C24.7454961,26.9840724 26.9840724,24.7454961 26.9840724,21.9840724 L26.9840724,5 C26.9840724,2.23857625 24.7454961,-5.07265313e-16 21.9840724,0 L5,0 C2.23857625,5.07265313e-16 -3.38176876e-16,2.23857625 0,5 Z M22.4930132,7.01159211 L19.4122303,21.7408026 C19.2676382,22.4319671 18.4569868,22.7424079 17.8877368,22.3245592 L13.2362171,18.9101842 L10.8654868,21.3307697 C10.4494145,21.7556053 9.73065789,21.5836579 9.55190132,21.0164803 L7.84065789,15.5865197 L3.25533553,14.2324934 C2.65375658,14.0548618 2.61828947,13.2161447 3.20275658,12.9883618 L21.2473421,5.95657895 C21.9341842,5.68894737 22.6439408,6.29005263 22.4930132,7.01159211 Z" id="Shape" fill-rule="nonzero"></path>
                </g>
            </g>
        </g>
    </g>
</svg>