<?xml version="1.0" encoding="UTF-8"?>
<svg width="20px" height="14px" viewBox="0 0 20 14" version="1.1" xmlns="http://www.w3.org/2000/svg" xmlns:xlink="http://www.w3.org/1999/xlink">
    <!-- Generator: sketchtool 52.2 (67145) - http://www.bohemiancoding.com/sketch -->
    <title>B1E02CD4-9A90-4738-BCD5-8D98550C970F</title>
    <desc>Created with sketchtool.</desc>
    <g id="Page-1" stroke="none" stroke-width="1" fill="none" fill-rule="evenodd">
        <g id="Главная---Меню-(Моб)" transform="translate(-164.000000, -416.000000)">
            <g id="Доп-языки" transform="translate(55.000000, 414.000000)">
                <g id="Язык" transform="translate(109.000000, 0.000000)">
                    <g id="united-kingdom" transform="translate(0.000000, 2.000000)">
                        <path d="M18.5021484,0.01078125 L1.49785156,0.01078125 C0.670585938,0.01078125 0,0.681367187 0,1.50863281 L0,11.6164062 C0,12.4436328 0.670585938,13.1142578 1.49785156,13.1142578 L18.5021484,13.1142578 C19.329375,13.1142578 20,12.4436719 20,11.6164062 L20,1.50863281 C20,0.681367187 19.3294141,0.01078125 18.5021484,0.01078125 Z" id="Path" fill="#41479B"></path>
                        <path d="M19.9792578,1.26101562 C19.8612109,0.551679687 19.245,0.0107421875 18.5021484,0.0107421875 L18.1124219,0.0107421875 L11.7241406,4.19617188 L11.7241406,0.01078125 L8.27585938,0.01078125 L8.27585938,4.19621094 L1.88757813,0.01078125 L1.49785156,0.01078125 C0.755,0.01078125 0.138789062,0.551679687 0.0207421875,1.26105469 L5.48082031,4.83839844 L0,4.83839844 L0,8.28667969 L5.48082031,8.28667969 L0.0207421875,11.8639453 C0.138789063,12.5732813 0.755,13.1142187 1.49785156,13.1142187 L1.88757813,13.1142187 L8.27585937,8.92878906 L8.27585937,13.1142187 L11.7241406,13.1142187 L11.7241406,8.92878906 L18.1124219,13.1142187 L18.5021484,13.1142187 C19.245,13.1142187 19.8612109,12.5733203 19.9792578,11.8639453 L14.5191797,8.28660156 L20,8.28660156 L20,4.83832031 L14.5191797,4.83832031 L19.9792578,1.26101562 Z" id="Path" fill="#F5F5F5"></path>
                        <g id="Group" fill="#FF4B55">
                            <polygon id="Path" points="11.0344922 0.01078125 8.96550781 0.01078125 8.96550781 5.52800781 0 5.52800781 0 7.59699219 8.96550781 7.59699219 8.96550781 13.1142187 11.0344922 13.1142187 11.0344922 7.59699219 20 7.59699219 20 5.52800781 11.0344922 5.52800781"></polygon>
                            <path d="M0.968476563,13.0176563 L8.256875,8.28664063 L6.99015625,8.28664063 L0.3603125,12.5902344 C0.522539063,12.7795703 0.731015625,12.9279297 0.968476563,13.0176563 Z" id="Path"></path>
                            <path d="M13.5307812,8.28664062 L12.2640625,8.28664062 L19.3232812,12.8688672 C19.5208203,12.7391406 19.6856641,12.5639062 19.8032422,12.358125 L13.5307812,8.28664062 Z" id="Path"></path>
                            <path d="M0.158164063,0.838867187 L6.31949219,4.83835937 L7.58621094,4.83835937 L0.604492188,0.306328125 C0.41703125,0.445859375 0.263632812,0.62828125 0.158164063,0.838867187 Z" id="Path"></path>
                            <path d="M12.9908594,4.83835937 L19.6328516,0.526835937 C19.4688281,0.338125 19.2587109,0.190625 19.0196094,0.102617187 L11.7241406,4.83835937 L12.9908594,4.83835937 Z" id="Path"></path>
                        </g>
                    </g>
                </g>
            </g>
        </g>
    </g>
</svg>