<?xml version="1.0" encoding="UTF-8"?>
<svg width="27px" height="27px" viewBox="0 0 27 27" version="1.1" xmlns="http://www.w3.org/2000/svg" xmlns:xlink="http://www.w3.org/1999/xlink">
    <!-- Generator: sketchtool 52.2 (67145) - http://www.bohemiancoding.com/sketch -->
    <title>FE3227FC-83D1-46B3-9C21-85298C6DE612</title>
    <desc>Created with sketchtool.</desc>
    <g id="Page-1" stroke="none" stroke-width="1" fill="none" fill-rule="evenodd">
        <g id="Главная---Меню-(Моб)" transform="translate(-253.000000, -14.000000)" fill="#FFFFFF" fill-rule="nonzero">
            <g id="Group">
                <g id="viber" transform="translate(253.000000, 14.000000)">
                    <path d="M17.5308158,6.23966447 C14.8509474,5.72986184 12.1331842,5.72986184 9.45272368,6.23966447 C8.28035526,6.50078289 6.80542105,7.91413816 6.51706579,9.05098026 C6.03746053,11.2506513 6.03746053,13.4805197 6.51706579,15.6801908 C6.80542105,16.8170329 8.28035526,18.2303882 9.45272368,18.4915066 C9.45301974,18.4915658 9.45331579,18.491625 9.45361184,18.4916842 C9.50583553,18.5019276 9.54390789,18.5471645 9.54390789,18.6003947 L9.54390789,21.82275 C9.54390789,21.9838026 9.74048684,22.0631447 9.85239474,21.9465 L11.3829868,20.3756447 C11.3829868,20.3756447 12.6026645,19.1235789 12.8219803,18.8984605 C12.8434145,18.8764342 12.8730197,18.8645329 12.9036908,18.8653618 C14.4490263,18.9081711 15.9960197,18.7833553 17.5308158,18.4915658 C18.7031842,18.2304474 20.1787105,16.8170921 20.4664737,15.68025 C20.9466711,13.4805789 20.9466711,11.2507105 20.4664737,9.05103947 C20.1786513,7.91413816 18.7037763,6.50078289 17.5308158,6.23966447 Z M17.5716711,15.8442632 C17.3371974,16.3421053 16.9960263,16.7562829 16.5038684,17.0206579 C16.3650197,17.0952632 16.1990526,17.1193618 16.0423224,17.1676184 C15.8620855,17.1129079 15.6903158,17.0761382 15.5308026,17.0099408 C13.8778816,16.3241645 12.3566447,15.4394408 11.1516513,14.0832237 C10.4664079,13.3120066 9.93001974,12.4413158 9.47670395,11.5198816 C9.26171053,11.0829079 9.08052632,10.6288224 8.89584868,10.1776974 C8.72739474,9.76630263 8.97548684,9.34128947 9.23666447,9.03132237 C9.48173684,8.74042105 9.79709211,8.51778947 10.1386184,8.35371711 C10.4051842,8.22564474 10.6681382,8.29948026 10.8628224,8.52542763 C11.2836908,9.01391447 11.6702763,9.52738816 11.9833224,10.0936184 C12.1758158,10.4418947 12.123,10.8676184 11.7741316,11.1046382 C11.6893421,11.16225 11.6120724,11.2298684 11.5330855,11.2949408 C11.4638092,11.3519605 11.3986184,11.4095724 11.3511316,11.4867829 C11.2643289,11.628 11.2601842,11.7946776 11.3160789,11.9482697 C11.7463026,13.1305855 12.4714539,14.0499474 13.6614671,14.545125 C13.8519474,14.6243487 14.0431382,14.7165987 14.2625132,14.6910197 C14.6299145,14.6480921 14.7488684,14.2451053 15.0063158,14.0345526 C15.2579605,13.8287961 15.5795329,13.8260724 15.8505987,13.9976053 C16.1217237,14.1691974 16.3845592,14.3534013 16.6457961,14.5395592 C16.9022368,14.7222829 17.1575526,14.9010395 17.3940987,15.1093421 C17.6214079,15.3095921 17.6997434,15.5723684 17.5716711,15.8442632 Z M15.4374868,11.9914934 C15.334875,11.9933289 15.3751974,11.9913158 15.4142171,11.9901908 C15.2488421,11.9843882 15.1589013,11.8870461 15.1411382,11.7287763 C15.1281711,11.6131382 15.1179276,11.4959605 15.0903355,11.3834605 C15.0359803,11.1618947 14.9182105,10.9565526 14.731875,10.8207829 C14.6438882,10.7566579 14.5441776,10.7098816 14.4397303,10.6798026 C14.3070395,10.6414934 14.1692566,10.6520329 14.0368618,10.6195855 C13.8930987,10.5844145 13.8135789,10.4679474 13.8361382,10.3330658 C13.8566842,10.2103224 13.9761118,10.1145197 14.1102237,10.1242303 C14.9484671,10.1847434 15.5475592,10.6181053 15.6330592,11.6049671 C15.6390987,11.6745987 15.6462039,11.7481382 15.63075,11.81475 C15.6056447,11.9230461 15.5282566,11.9794145 15.4500395,11.9896579 C15.4564342,11.9897763 15.4551908,11.9903092 15.4374868,11.9914934 Z M14.9162566,9.73444737 C14.6590461,9.60850658 14.380875,9.53023026 14.0989145,9.48357237 C13.9756974,9.46320395 13.8511776,9.45082895 13.7273684,9.43359868 C13.5773289,9.41275658 13.4972763,9.31713158 13.5043224,9.16928289 C13.5109539,9.03073026 13.6122039,8.93107895 13.7631908,8.93960526 C14.259375,8.96778947 14.738625,9.07501974 15.1797434,9.30860526 C16.0767829,9.78365132 16.5891908,10.5334934 16.7387566,11.5347434 C16.7455658,11.5800987 16.7564013,11.6250395 16.7598355,11.6705724 C16.7683618,11.7829539 16.7736316,11.8955132 16.7822763,12.0437171 C16.7787237,12.0707171 16.7768289,12.1341908 16.7610789,12.1939934 C16.7037039,12.4110592 16.3746118,12.4382368 16.2988224,12.2191579 C16.2763816,12.1541447 16.2730066,12.0801908 16.2728882,12.0102039 C16.2721184,11.5522697 16.1725855,11.0948092 15.9416645,10.6963816 C15.7042895,10.287 15.3415658,9.94275 14.9162566,9.73444737 Z M17.6880197,12.8288487 C17.5147105,12.8309211 17.4367303,12.6859145 17.4254803,12.5304868 C17.4032171,12.2228289 17.3878224,11.9138092 17.3453684,11.6086974 C17.1215526,9.99811184 15.8372763,8.66563816 14.2342105,8.37971053 C13.9929868,8.33666447 13.7460197,8.32535526 13.5017171,8.29971711 C13.3472368,8.28349342 13.1449145,8.27413816 13.1106908,8.08211842 C13.0819737,7.921125 13.2178618,7.79293421 13.3711579,7.78470395 C13.4128421,7.78245395 13.4547632,7.78434868 13.496625,7.78452632 C15.5728421,7.84273026 13.6233355,7.78902632 13.5021908,7.78482237 C15.6617171,7.84776316 17.4347763,9.28184211 17.8150263,11.4174474 C17.8798618,11.7816513 17.9029539,12.1540263 17.9317895,12.5236776 C17.9438684,12.6791053 17.8558224,12.8268355 17.6880197,12.8288487 Z" id="Shape"></path>
                    <path d="M0,5 L0,21.9840724 C3.38176876e-16,24.7454961 2.23857625,26.9840724 5,26.9840724 L21.9840724,26.9840724 C24.7454961,26.9840724 26.9840724,24.7454961 26.9840724,21.9840724 L26.9840724,5 C26.9840724,2.23857625 24.7454961,-5.07265313e-16 21.9840724,0 L5,0 C2.23857625,5.07265313e-16 -3.38176876e-16,2.23857625 0,5 Z M22.0260789,16.0330855 L22.02075,16.0544013 C21.5896974,17.7969671 19.6464079,19.6668355 17.8618026,20.0558487 L17.8416711,20.0599934 C16.3987105,20.3353224 14.9450921,20.4726908 13.4920658,20.4726908 C13.0643882,20.4726908 13.1122338,20.4966118 12.684793,20.4726908 L9.9678705,23.2273905 C9.47997576,23.7354168 8.62201524,23.3896273 8.62201524,22.6856142 L8.61420975,19.8074552 C6.89621633,19.3168367 5.37601974,17.7225987 4.96278947,16.0543421 L4.95805263,16.0330263 C4.42515789,13.5994737 4.42515789,11.1315789 4.95805263,8.69802632 L4.96278947,8.67671053 C5.39443421,6.93414474 7.33772368,5.06427632 9.12173684,4.67526316 L9.14246053,4.67111842 C12.0283816,4.12046053 14.9551579,4.12046053 17.8416711,4.67111842 L17.8618026,4.67526316 C19.6464079,5.06427632 21.5896974,6.93414474 22.02075,8.67671053 L22.0260789,8.69802632 C22.5589737,11.1316382 22.5589737,13.5995329 22.0260789,16.0330855 Z" id="Shape"></path>
                </g>
            </g>
        </g>
    </g>
</svg>