<?xml version="1.0" encoding="UTF-8"?>
<svg width="27px" height="27px" viewBox="0 0 27 27" version="1.1" xmlns="http://www.w3.org/2000/svg" xmlns:xlink="http://www.w3.org/1999/xlink">
    <!-- Generator: sketchtool 52.2 (67145) - http://www.bohemiancoding.com/sketch -->
    <title>75C60322-4083-45C5-8F0C-A9EB6E5BD934</title>
    <desc>Created with sketchtool.</desc>
    <g id="Page-1" stroke="none" stroke-width="1" fill="none" fill-rule="evenodd">
        <g id="Калькулятор-(Моб)" transform="translate(-288.000000, -19.000000)" fill="#3D7EBA" fill-rule="nonzero">
            <g id="Шапка" transform="translate(20.000000, 12.000000)">
                <g id="whatsapp" transform="translate(268.000000, 7.000000)">
                    <path d="M13.5000284,6 C9.36450613,6 6,9.36449341 6,13.5 C6,14.9409611 6.40954024,16.3402703 7.18424487,17.5466417 L7.37043048,17.8365591 L6.64095289,20.4274857 L9.32154896,19.7374496 L9.59801841,19.9062701 C10.7700628,20.6217853 12.1193835,21 13.5000284,21 C17.6355506,21 21,17.6355066 21,13.5 C21,9.36449341 17.6355506,6 13.5000284,6 Z M17.9933709,15.8771687 L17.901555,16.3366261 C17.7979907,16.855022 17.5106276,17.3135846 17.0937534,17.599269 C16.5674129,17.9599986 15.8851691,18.1371122 15.0180129,17.8743946 C12.3268442,17.0590993 10.8048943,15.1501618 9.98829528,13.9570758 C9.17164059,12.7639899 8.85615921,11.5709039 9.06028112,10.5965702 C9.19719759,9.94311706 9.64296956,9.44172269 9.92175799,9.18228614 C10.0583404,9.05522249 10.2355133,8.99055723 10.4160827,9.00111604 L10.991143,9.03470141 C11.1043956,9.04132303 11.204285,9.11624883 11.2488845,9.22798133 L12.0865861,11.3278723 C12.1313526,11.440082 12.1124772,11.5697705 12.0380334,11.6620557 L11.3088516,12.5658183 C11.2497197,12.6390738 11.2394189,12.7434688 11.2810674,12.8294306 C12.2414315,14.811385 13.9916683,15.5967339 14.5141669,15.7934738 C14.6031988,15.8269995 14.7018633,15.795323 14.7595475,15.7152073 L15.522527,14.6555084 C15.6073829,14.5376315 15.7569943,14.4982596 15.8831646,14.5605984 L17.8266658,15.5203764 C17.9533372,15.5829537 18.0225471,15.731135 17.9933709,15.8771687 Z" id="Shape"></path>
                    <path d="M0,5 L0,22 C3.38176876e-16,24.7614237 2.23857625,27 5,27 L22,27 C24.7614237,27 27,24.7614237 27,22 L27,5 C27,2.23857625 24.7614237,-5.07265313e-16 22,0 L5,0 C2.23857625,5.07265313e-16 -3.38176876e-16,2.23857625 0,5 Z M13.5121749,22.9075595 C11.8919889,22.9075595 10.3055136,22.4928412 8.90204748,21.7053503 L4.05795963,22.9522898 L5.38049639,18.2550715 C4.53002758,16.8102521 4.08225027,15.1663679 4.08225027,13.4776348 C4.08225027,8.27795564 8.31249575,4.04771016 13.5121749,4.04771016 C18.7118541,4.04771016 22.9420404,8.27795564 22.9420404,13.4776348 C22.9420404,18.677314 18.7118541,22.9075595 13.5121749,22.9075595 Z" id="Shape"></path>
                </g>
            </g>
        </g>
    </g>
</svg>